<mxfile host="65bd71144e" pages="5">
    <diagram id="06IgGzIqfD67rxwyH4Kl" name="architecture">
        <mxGraphModel dx="2094" dy="935" grid="0" gridSize="10" guides="1" tooltips="1" connect="1" arrows="1" fold="1" page="0" pageScale="1" pageWidth="850" pageHeight="1100" math="0" shadow="0">
            <root>
                <mxCell id="0"/>
                <mxCell id="1" parent="0"/>
                <mxCell id="lDiJ3G_Knyag7TX1NRWr-76" value="" style="rounded=0;whiteSpace=wrap;html=1;" parent="1" vertex="1">
                    <mxGeometry x="-880" y="450" width="385" height="260" as="geometry"/>
                </mxCell>
                <mxCell id="lDiJ3G_Knyag7TX1NRWr-7" value="Region 1" style="shape=mxgraph.ibm.box;prType=region;fontStyle=0;verticalAlign=top;align=left;spacingLeft=32;spacingTop=4;rounded=0;whiteSpace=wrap;html=1;strokeWidth=2;dashed=0;container=1;spacing=-4;collapsible=0;expand=0;recursiveResize=0;fillColor=#dae8fc;strokeColor=#6c8ebf;" parent="1" vertex="1">
                    <mxGeometry x="-780" y="70" width="190" height="320" as="geometry"/>
                </mxCell>
                <mxCell id="lDiJ3G_Knyag7TX1NRWr-41" value="" style="rounded=0;whiteSpace=wrap;html=1;" parent="lDiJ3G_Knyag7TX1NRWr-7" vertex="1">
                    <mxGeometry x="20" y="22" width="160" height="248" as="geometry"/>
                </mxCell>
                <mxCell id="lDiJ3G_Knyag7TX1NRWr-4" value="Zone 1" style="shape=mxgraph.ibm.box;prType=zone;fontStyle=0;verticalAlign=top;align=left;spacingLeft=32;spacingTop=4;rounded=0;whiteSpace=wrap;html=1;strokeWidth=1;dashed=0;container=1;spacing=-4;collapsible=0;expand=0;recursiveResize=0;" parent="lDiJ3G_Knyag7TX1NRWr-7" vertex="1">
                    <mxGeometry x="35" y="30" width="130" height="90" as="geometry"/>
                </mxCell>
                <mxCell id="lDiJ3G_Knyag7TX1NRWr-2" value="" style="shape=image;aspect=fixed;image=data:image/svg+xml,PD94bWwgdmVyc2lvbj0iMS4wIiBlbmNvZGluZz0idXRmLTgiPz48c3ZnIHZlcnNpb249IjEuMSIgaWQ9IlBhZGRpbmciIHhtbG5zPSJodHRwOi8vd3d3LnczLm9yZy8yMDAwL3N2ZyIgeG1sbnM6eGxpbms9Imh0dHA6Ly93d3cudzMub3JnLzE5OTkveGxpbmsiIHg9IjBweCIgeT0iMHB4IiB2aWV3Qm94PSIwIDAgMzIgMzIiIHN0eWxlPSJlbmFibGUtYmFja2dyb3VuZDpuZXcgMCAwIDMyIDMyOyIgeG1sOnNwYWNlPSJwcmVzZXJ2ZSI+PGRlZnM+PGxpbmVhckdyYWRpZW50IGlkPSJhIiB4MT0iMTEuNTQiIHkxPSIyOS42MyIgeDI9IjExLjU0IiB5Mj0iMi4zNyIgZ3JhZGllbnRVbml0cz0idXNlclNwYWNlT25Vc2UiPjxzdG9wIG9mZnNldD0iMCIgc3RvcC1jb2xvcj0iI2ZmZiIgc3RvcC1vcGFjaXR5PSIwIi8+PHN0b3Agb2Zmc2V0PSIwLjQ2IiBzdG9wLWNvbG9yPSIjZmZmIi8+PC9saW5lYXJHcmFkaWVudD48bWFzayBpZD0iYiIgeD0iMCIgeT0iMCIgd2lkdGg9IjMyIiBoZWlnaHQ9IjMyIiBtYXNrVW5pdHM9InVzZXJTcGFjZU9uVXNlIj48cGF0aCBkPSJNMTMuNywyOS42M0ExOC43NywxOC43NywwLDAsMSw4LDE2LDE4Ljc3LDE4Ljc3LDAsMCwxLDEzLjcsMi4zN2wxLjM3LDEuNDZBMTYuNzQsMTYuNzQsMCwwLDAsMTAsMTZhMTYuNzQsMTYuNzQsMCwwLDAsNS4wNywxMi4xN1oiIGZpbGw9InVybCgjYSkiLz48cGF0aCBkPSJNMTYsMmExNCwxNCwwLDAsMCwwLDI4aDFWMlpNMTUsNFYxNUg0LjA1QTEyLDEyLDAsMCwxLDE1LDRaTTQuMDUsMTdIMTVWMjhBMTIsMTIsMCwwLDEsNC4wNSwxN1oiIGZpbGw9IiNmZmYiLz48L21hc2s+PGxpbmVhckdyYWRpZW50IGlkPSJjIiB5MT0iMzIiIHgyPSIzMiIgZ3JhZGllbnRVbml0cz0idXNlclNwYWNlT25Vc2UiPjxzdG9wIG9mZnNldD0iMC4xIiBzdG9wLWNvbG9yPSIjZWU1Mzk2Ii8+PHN0b3Agb2Zmc2V0PSIwLjkiIHN0b3AtY29sb3I9IiM4YTNmZmMiLz48L2xpbmVhckdyYWRpZW50PjwvZGVmcz48ZyBtYXNrPSJ1cmwoI2IpIj48cmVjdCB3aWR0aD0iMzIiIGhlaWdodD0iMzIiIGZpbGw9InVybCgjYykiLz48L2c+PHBhdGggZD0iTTI5LDIzSDI4VjIxYTMsMywwLDAsMC02LDB2MkgyMWExLDEsMCwwLDAtMSwxdjVhMSwxLDAsMCwwLDEsMWg4YTEsMSwwLDAsMCwxLTFWMjRBMSwxLDAsMCwwLDI5LDIzWm0tNS0yYTEsMSwwLDAsMSwyLDB2MkgyNFptNCw3SDIyVjI1aDZaIiBmaWxsPSIjMDAxZDZjIi8+PGNpcmNsZSBjeD0iMjUiIGN5PSIxNSIgcj0iMSIgZmlsbD0iIzAwMWQ2YyIvPjxjaXJjbGUgY3g9IjI1IiBjeT0iMTEiIHI9IjEiIGZpbGw9IiMwMDFkNmMiLz48cGF0aCBkPSJNMjUsOGEzLDMsMCwxLDAtMy0zQTMsMywwLDAsMCwyNSw4Wm0wLTRhMSwxLDAsMSwxLTEsMUExLDEsMCwwLDEsMjUsNFoiIGZpbGw9IiMwMDFkNmMiLz48L3N2Zz4=;" parent="lDiJ3G_Knyag7TX1NRWr-4" vertex="1">
                    <mxGeometry x="40" y="20" width="50" height="50" as="geometry"/>
                </mxCell>
                <mxCell id="lDiJ3G_Knyag7TX1NRWr-43" value="VPN member 1" style="text;html=1;strokeColor=none;fillColor=none;align=center;verticalAlign=middle;whiteSpace=wrap;rounded=0;" parent="lDiJ3G_Knyag7TX1NRWr-4" vertex="1">
                    <mxGeometry y="68" width="130" height="20" as="geometry"/>
                </mxCell>
                <mxCell id="lDiJ3G_Knyag7TX1NRWr-5" value="Zone 2" style="shape=mxgraph.ibm.box;prType=zone;fontStyle=0;verticalAlign=top;align=left;spacingLeft=32;spacingTop=4;rounded=0;whiteSpace=wrap;html=1;strokeWidth=1;dashed=0;container=1;spacing=-4;collapsible=0;expand=0;recursiveResize=0;" parent="lDiJ3G_Knyag7TX1NRWr-7" vertex="1">
                    <mxGeometry x="30" y="160" width="135" height="100" as="geometry"/>
                </mxCell>
                <mxCell id="lDiJ3G_Knyag7TX1NRWr-6" value="" style="shape=image;aspect=fixed;image=data:image/svg+xml,PD94bWwgdmVyc2lvbj0iMS4wIiBlbmNvZGluZz0idXRmLTgiPz48c3ZnIHZlcnNpb249IjEuMSIgaWQ9IlBhZGRpbmciIHhtbG5zPSJodHRwOi8vd3d3LnczLm9yZy8yMDAwL3N2ZyIgeG1sbnM6eGxpbms9Imh0dHA6Ly93d3cudzMub3JnLzE5OTkveGxpbmsiIHg9IjBweCIgeT0iMHB4IiB2aWV3Qm94PSIwIDAgMzIgMzIiIHN0eWxlPSJlbmFibGUtYmFja2dyb3VuZDpuZXcgMCAwIDMyIDMyOyIgeG1sOnNwYWNlPSJwcmVzZXJ2ZSI+PGRlZnM+PGxpbmVhckdyYWRpZW50IGlkPSJhIiB4MT0iMTEuNTQiIHkxPSIyOS42MyIgeDI9IjExLjU0IiB5Mj0iMi4zNyIgZ3JhZGllbnRVbml0cz0idXNlclNwYWNlT25Vc2UiPjxzdG9wIG9mZnNldD0iMCIgc3RvcC1jb2xvcj0iI2ZmZiIgc3RvcC1vcGFjaXR5PSIwIi8+PHN0b3Agb2Zmc2V0PSIwLjQ2IiBzdG9wLWNvbG9yPSIjZmZmIi8+PC9saW5lYXJHcmFkaWVudD48bWFzayBpZD0iYiIgeD0iMCIgeT0iMCIgd2lkdGg9IjMyIiBoZWlnaHQ9IjMyIiBtYXNrVW5pdHM9InVzZXJTcGFjZU9uVXNlIj48cGF0aCBkPSJNMTMuNywyOS42M0ExOC43NywxOC43NywwLDAsMSw4LDE2LDE4Ljc3LDE4Ljc3LDAsMCwxLDEzLjcsMi4zN2wxLjM3LDEuNDZBMTYuNzQsMTYuNzQsMCwwLDAsMTAsMTZhMTYuNzQsMTYuNzQsMCwwLDAsNS4wNywxMi4xN1oiIGZpbGw9InVybCgjYSkiLz48cGF0aCBkPSJNMTYsMmExNCwxNCwwLDAsMCwwLDI4aDFWMlpNMTUsNFYxNUg0LjA1QTEyLDEyLDAsMCwxLDE1LDRaTTQuMDUsMTdIMTVWMjhBMTIsMTIsMCwwLDEsNC4wNSwxN1oiIGZpbGw9IiNmZmYiLz48L21hc2s+PGxpbmVhckdyYWRpZW50IGlkPSJjIiB5MT0iMzIiIHgyPSIzMiIgZ3JhZGllbnRVbml0cz0idXNlclNwYWNlT25Vc2UiPjxzdG9wIG9mZnNldD0iMC4xIiBzdG9wLWNvbG9yPSIjZWU1Mzk2Ii8+PHN0b3Agb2Zmc2V0PSIwLjkiIHN0b3AtY29sb3I9IiM4YTNmZmMiLz48L2xpbmVhckdyYWRpZW50PjwvZGVmcz48ZyBtYXNrPSJ1cmwoI2IpIj48cmVjdCB3aWR0aD0iMzIiIGhlaWdodD0iMzIiIGZpbGw9InVybCgjYykiLz48L2c+PHBhdGggZD0iTTI5LDIzSDI4VjIxYTMsMywwLDAsMC02LDB2MkgyMWExLDEsMCwwLDAtMSwxdjVhMSwxLDAsMCwwLDEsMWg4YTEsMSwwLDAsMCwxLTFWMjRBMSwxLDAsMCwwLDI5LDIzWm0tNS0yYTEsMSwwLDAsMSwyLDB2MkgyNFptNCw3SDIyVjI1aDZaIiBmaWxsPSIjMDAxZDZjIi8+PGNpcmNsZSBjeD0iMjUiIGN5PSIxNSIgcj0iMSIgZmlsbD0iIzAwMWQ2YyIvPjxjaXJjbGUgY3g9IjI1IiBjeT0iMTEiIHI9IjEiIGZpbGw9IiMwMDFkNmMiLz48cGF0aCBkPSJNMjUsOGEzLDMsMCwxLDAtMy0zQTMsMywwLDAsMCwyNSw4Wm0wLTRhMSwxLDAsMSwxLTEsMUExLDEsMCwwLDEsMjUsNFoiIGZpbGw9IiMwMDFkNmMiLz48L3N2Zz4=;" parent="lDiJ3G_Knyag7TX1NRWr-5" vertex="1">
                    <mxGeometry x="40" y="20" width="50" height="50" as="geometry"/>
                </mxCell>
                <mxCell id="lDiJ3G_Knyag7TX1NRWr-38" value="VPN server service" style="text;html=1;strokeColor=none;fillColor=none;align=center;verticalAlign=middle;whiteSpace=wrap;rounded=0;" parent="lDiJ3G_Knyag7TX1NRWr-7" vertex="1">
                    <mxGeometry x="49" y="290" width="85" height="20" as="geometry"/>
                </mxCell>
                <mxCell id="lDiJ3G_Knyag7TX1NRWr-42" value="&lt;font style=&quot;font-size: 7px&quot;&gt;VPN server:&lt;br&gt;8647a2e7cb79.us-south1.vpn-server.appdomain.cloud&lt;/font&gt;" style="text;html=1;strokeColor=none;fillColor=none;align=center;verticalAlign=middle;whiteSpace=wrap;rounded=0;" parent="lDiJ3G_Knyag7TX1NRWr-7" vertex="1">
                    <mxGeometry x="18" y="132" width="180" height="20" as="geometry"/>
                </mxCell>
                <mxCell id="lDiJ3G_Knyag7TX1NRWr-34" value="IBM" style="shape=mxgraph.ibm.box;prType=cloud;fontStyle=0;verticalAlign=top;align=left;spacingLeft=32;spacingTop=4;fillColor=none;rounded=0;whiteSpace=wrap;html=1;strokeColor=#4376BB;strokeWidth=3;dashed=0;container=1;spacing=-4;collapsible=0;expand=0;recursiveResize=0;" parent="1" vertex="1">
                    <mxGeometry x="-904" y="-100" width="380" height="120" as="geometry"/>
                </mxCell>
                <mxCell id="lDiJ3G_Knyag7TX1NRWr-35" value="DNS" style="text;html=1;strokeColor=none;fillColor=none;align=center;verticalAlign=middle;whiteSpace=wrap;rounded=0;" parent="lDiJ3G_Knyag7TX1NRWr-34" vertex="1">
                    <mxGeometry x="56" y="25" width="40" height="20" as="geometry"/>
                </mxCell>
                <mxCell id="lDiJ3G_Knyag7TX1NRWr-36" value="IAM" style="text;html=1;strokeColor=none;fillColor=none;align=center;verticalAlign=middle;whiteSpace=wrap;rounded=0;" parent="lDiJ3G_Knyag7TX1NRWr-34" vertex="1">
                    <mxGeometry x="145" y="23" width="40" height="20" as="geometry"/>
                </mxCell>
                <mxCell id="lDiJ3G_Knyag7TX1NRWr-37" value="Certificate manager" style="text;html=1;strokeColor=none;fillColor=none;align=center;verticalAlign=middle;whiteSpace=wrap;rounded=0;" parent="lDiJ3G_Knyag7TX1NRWr-34" vertex="1">
                    <mxGeometry x="253" y="100" width="110" height="20" as="geometry"/>
                </mxCell>
                <mxCell id="lDiJ3G_Knyag7TX1NRWr-28" value="" style="shape=image;aspect=fixed;image=data:image/png,iVBORw0KGgoAAAANSUhEUgAAAEEAAABBCAMAAAC5KTl3AAAAkFBMVEUAAAAAql4Aql4Aql4Aql4Aql4Aql4Aql4Aql4Aql4Aql4Aql4Aql4Aql4Aql4Aql4Aql4Qr2ggtXIwunwzw3dAv4ZQxZBgyppwz6SA1a+J7aCP2rmQ7qaY76yf38Of8LKn8riv5M219MS57M+/6tfE9tDP7+HT+NvY8+Xa+eHf9Ovi++fp/O3v+vX4/vn///8sKcW7AAAAEHRSTlMAECAwQFBgcICPn6+/z9/vIxqCigAAAmBJREFUWMPtl2lzozAMhuOcEO5QCjgJDW2OloXl//+7xgRfIINDZ2d2Z1bf8PGMZEuv8Gz25wytTNvzG3NtY/n0/pXly+Ztn4KsXR8wW5uxcPiuXRQFAmOuBTDo5iQv6sauWdxivI3GAbYHEJ1r0aps9xjfjgIcaH9jLcNBOoB9DVkVayC2ZElwrRWWjQayIQtCJYAi1Me5GPaAIxYqgk1mBwF1vW/yQgFYdg+xyuLobnFWCYMRWbVWuxAK+1OWjUHCGQUZddUu8Dw4B2JNBHwiJd8r1U1GbN1Ht64y5htBWxCBiEFOl5X4pYtgXiTkC8FBBHTR7yPuIXb0LK6KMEhJxpRwwbiPSOksKRCjT7DEWA8YQDAPYzglHCGbvjCGELlwG8B9kiVSEH1EQi+afAwTThhERFMIEmIaQURMJAgIDULVPUkZQRMiJ6oNVyZN3F8YRIi3acOFxbLuCCF2okSYsEay0rxhAEH5lUJjGpEsKOKtjwglrYQk3xXDKA9dBFdgEoQD6YMphtpDHD5r8S5BoZxLFVyXUiBvpSS1HlI2rKDgUntjN3K88VGSDJA6MCcisTmUl/fT6f1Sih0gULvwOAlWwgoLB9se8iRRhiwealm0ZQwhGoCHxpo3F9yOFeFw3+U/EIofgOzRxdYjv0FtGcZFd/85aqdmegTff82lLh6yCW0CyY10f75bmoTi6DME2P4T/l2CYfyMYN+raGFPJ9D3yMabSOBvork9hSA/iAQ3dAkWgl9PugQP+F1ceU8QLDTwiNMguMqX6dLVIpgDUozMUQJyR57GSxfN/jr7Bl/g8dMOd8TwAAAAAElFTkSuQmCC;" parent="lDiJ3G_Knyag7TX1NRWr-34" vertex="1">
                    <mxGeometry x="282" y="64" width="38" height="38" as="geometry"/>
                </mxCell>
                <mxCell id="lDiJ3G_Knyag7TX1NRWr-27" value="" style="aspect=fixed;perimeter=ellipsePerimeter;html=1;align=center;shadow=0;dashed=0;fontColor=#4277BB;labelBackgroundColor=#ffffff;fontSize=12;spacingTop=3;image;image=img/lib/ibm/security/identity_access_management.svg;" parent="lDiJ3G_Knyag7TX1NRWr-34" vertex="1">
                    <mxGeometry x="129" y="39" width="60" height="60" as="geometry"/>
                </mxCell>
                <mxCell id="lDiJ3G_Knyag7TX1NRWr-55" value="" style="edgeStyle=elbowEdgeStyle;rounded=0;elbow=vertical;html=1;labelBackgroundColor=#ffffff;startArrow=classic;startFill=1;startSize=6;endArrow=classic;endFill=1;endSize=6;jettySize=auto;orthogonalLoop=1;strokeWidth=1;fontSize=14;entryX=0;entryY=0.5;entryDx=0;entryDy=0;strokeColor=#FF0000;" parent="lDiJ3G_Knyag7TX1NRWr-34" edge="1">
                    <mxGeometry width="60" height="60" relative="1" as="geometry">
                        <mxPoint x="225" y="170" as="sourcePoint"/>
                        <mxPoint x="264" y="67" as="targetPoint"/>
                        <Array as="points">
                            <mxPoint x="245" y="67"/>
                        </Array>
                    </mxGeometry>
                </mxCell>
                <mxCell id="lDiJ3G_Knyag7TX1NRWr-58" value="" style="edgeStyle=elbowEdgeStyle;rounded=0;elbow=vertical;html=1;labelBackgroundColor=#ffffff;startArrow=classic;startFill=1;startSize=6;endArrow=classic;endFill=1;endSize=6;jettySize=auto;orthogonalLoop=1;strokeWidth=1;fontSize=14;strokeColor=#FF0000;" parent="lDiJ3G_Knyag7TX1NRWr-34" edge="1">
                    <mxGeometry width="60" height="60" relative="1" as="geometry">
                        <mxPoint x="225" y="170" as="sourcePoint"/>
                        <mxPoint x="189" y="66" as="targetPoint"/>
                        <Array as="points">
                            <mxPoint x="205" y="66"/>
                        </Array>
                    </mxGeometry>
                </mxCell>
                <mxCell id="2" value="" style="shape=image;verticalLabelPosition=bottom;labelBackgroundColor=#ffffff;verticalAlign=top;aspect=fixed;imageAspect=0;image=https://cache.globalcatalog.cloud.ibm.com/api/v1/ebc0cdb0-af2a-11ea-98c7-29e5db822649/artifacts/cache/8a2b29d3874b12e5109016fb8f35bc39-public/secrets-manager-icon64x64.png;" parent="lDiJ3G_Knyag7TX1NRWr-34" vertex="1">
                    <mxGeometry x="282" y="7" width="36" height="36" as="geometry"/>
                </mxCell>
                <mxCell id="3" value="Secrets manager" style="text;html=1;strokeColor=none;fillColor=none;align=center;verticalAlign=middle;whiteSpace=wrap;rounded=0;" parent="lDiJ3G_Knyag7TX1NRWr-34" vertex="1">
                    <mxGeometry x="253" y="41" width="110" height="20" as="geometry"/>
                </mxCell>
                <mxCell id="lDiJ3G_Knyag7TX1NRWr-8" value="Region 1" style="shape=mxgraph.ibm.box;prType=region;fontStyle=0;verticalAlign=top;align=left;spacingLeft=32;spacingTop=4;rounded=0;whiteSpace=wrap;html=1;strokeWidth=2;dashed=0;container=1;spacing=-4;collapsible=0;expand=0;recursiveResize=0;" parent="1" vertex="1">
                    <mxGeometry x="-480" y="50" width="160" height="340" as="geometry"/>
                </mxCell>
                <mxCell id="lDiJ3G_Knyag7TX1NRWr-18" value="" style="shape=image;verticalLabelPosition=bottom;verticalAlign=top;imageAspect=0;aspect=fixed;image=data:image/svg+xml,PHN2ZyB4bWxucz0iaHR0cDovL3d3dy53My5vcmcvMjAwMC9zdmciIHhtbG5zOnhsaW5rPSJodHRwOi8vd3d3LnczLm9yZy8xOTk5L3hsaW5rIiB2ZXJzaW9uPSIxLjEiIGlkPSJ2cGNfZW5kcG9pbnRfaWNvbiIgeD0iMHB4IiB5PSIwcHgiIHZpZXdCb3g9IjIgMiAyOCAyOCIgc3R5bGU9ImVuYWJsZS1iYWNrZ3JvdW5kOm5ldyAwIDAgMzIgMzI7IiB4bWw6c3BhY2U9InByZXNlcnZlIiB3aWR0aD0iMjgiIGhlaWdodD0iMjgiPiYjeGE7PHN0eWxlIHR5cGU9InRleHQvY3NzIj4mI3hhOwkuc3Qwe2ZpbGw6dXJsKCN2cGNfZ3JhZGllbnRfYm90dG9tXzFfKTt9JiN4YTsJLnN0MXtmaWxsOnVybCgjdnBjX2dyYWRpZW50X3RvcF8xXyk7fSYjeGE7CS5zdDJ7ZmlsbDp1cmwoI2VuZHBvaW50X2dyYWRpZW50X3JpZ2h0XzFfKTt9JiN4YTsJLnN0M3tmaWxsOnVybCgjZW5kcG9pbnRfZ3JhZGllbnRfbGVmdF8xXyk7fSYjeGE7CS5zdDR7ZmlsbDojMDMxOTgxO30mI3hhOzwvc3R5bGU+JiN4YTs8bGluZWFyR3JhZGllbnQgaWQ9InZwY19ncmFkaWVudF9ib3R0b21fMV8iIGdyYWRpZW50VW5pdHM9InVzZXJTcGFjZU9uVXNlIiB4MT0iMC4zNzA4IiB5MT0iMzEuNTI5MiIgeDI9IjMxLjUxMDYiIHkyPSIwLjM4OTQiPiYjeGE7CTxzdG9wIG9mZnNldD0iMC4xIiBzdHlsZT0ic3RvcC1jb2xvcjojODgzRkZBIi8+JiN4YTsJPHN0b3Agb2Zmc2V0PSIwLjkiIHN0eWxlPSJzdG9wLWNvbG9yOiNFQzUzODgiLz4mI3hhOzwvbGluZWFyR3JhZGllbnQ+JiN4YTs8cGF0aCBpZD0idnBjX2dyYWRpZW50X2JvdHRvbSIgY2xhc3M9InN0MCIgZD0iTTIwLDI3SDdjLTEuMSwwLTItMC45LTItMlYxMS44aDJWMjVoMTNWMjd6Ii8+JiN4YTs8bGluZWFyR3JhZGllbnQgaWQ9InZwY19ncmFkaWVudF90b3BfMV8iIGdyYWRpZW50VW5pdHM9InVzZXJTcGFjZU9uVXNlIiB4MT0iMC42MzQ3IiB5MT0iMzEuODY1MyIgeDI9IjMxLjcyODIiIHkyPSIwLjc3MTgiPiYjeGE7CTxzdG9wIG9mZnNldD0iMC4xIiBzdHlsZT0ic3RvcC1jb2xvcjojODgzRkZBIi8+JiN4YTsJPHN0b3Agb2Zmc2V0PSIwLjkiIHN0eWxlPSJzdG9wLWNvbG9yOiNFQzUzODgiLz4mI3hhOzwvbGluZWFyR3JhZGllbnQ+JiN4YTs8cGF0aCBpZD0idnBjX2dyYWRpZW50X3RvcCIgY2xhc3M9InN0MSIgZD0iTTI1LDIxaDJWN2MwLTEuMS0wLjktMi0yLTJIMTJ2MmgxM1YyMXoiLz4mI3hhOzxsaW5lYXJHcmFkaWVudCBpZD0iZW5kcG9pbnRfZ3JhZGllbnRfcmlnaHRfMV8iIGdyYWRpZW50VW5pdHM9InVzZXJTcGFjZU9uVXNlIiB4MT0iLTQ2NyIgeTE9Ii0zMDciIHgyPSItNDYxIiB5Mj0iLTMwNyIgZ3JhZGllbnRUcmFuc2Zvcm09Im1hdHJpeCg0LjQ4OTcwMGUtMTEgLTEgLTEgLTQuNDg5NzAwZS0xMSAtMjgxIC00NDYpIj4mI3hhOwk8c3RvcCBvZmZzZXQ9IjAuMTAyNiIgc3R5bGU9InN0b3AtY29sb3I6I0ZGRkZGRiIvPiYjeGE7CTxzdG9wIG9mZnNldD0iMSIgc3R5bGU9InN0b3AtY29sb3I6I0ZGRkZGRjtzdG9wLW9wYWNpdHk6MCIvPiYjeGE7PC9saW5lYXJHcmFkaWVudD4mI3hhOzxwb2x5Z29uIGlkPSJlbmRwb2ludF9ncmFkaWVudF9yaWdodCIgY2xhc3M9InN0MiIgcG9pbnRzPSIyOCwxNSAyOCwyMSAyNCwyMSAyNCwxNSAiLz4mI3hhOzxsaW5lYXJHcmFkaWVudCBpZD0iZW5kcG9pbnRfZ3JhZGllbnRfbGVmdF8xXyIgZ3JhZGllbnRVbml0cz0idXNlclNwYWNlT25Vc2UiIHgxPSItMzM5IiB5MT0iNTA0IiB4Mj0iLTMzMyIgeTI9IjUwNCIgZ3JhZGllbnRUcmFuc2Zvcm09Im1hdHJpeCgtNC40ODk3MDBlLTExIDEgMSA0LjQ4OTcwMGUtMTEgLTQ5OCAzNTApIj4mI3hhOwk8c3RvcCBvZmZzZXQ9IjAuMTAyNiIgc3R5bGU9InN0b3AtY29sb3I6I0ZGRkZGRiIvPiYjeGE7CTxzdG9wIG9mZnNldD0iMC45OTk2IiBzdHlsZT0ic3RvcC1jb2xvcjojRkZGRkZGO3N0b3Atb3BhY2l0eTowIi8+JiN4YTs8L2xpbmVhckdyYWRpZW50PiYjeGE7PHBvbHlnb24gaWQ9ImVuZHBvaW50X2dyYWRpZW50X2xlZnQiIGNsYXNzPSJzdDMiIHBvaW50cz0iNCwxNyA0LDExIDgsMTEgOCwxNyAiLz4mI3hhOzxwYXRoIGlkPSJlbmRwb2ludHMiIGNsYXNzPSJzdDQiIGQ9Ik0yOCwyMmgtNGgtMC42bC00LTRjMC40LTAuNiwwLjYtMS4zLDAuNi0yYzAtMi4yLTEuOC00LTQtNGMtMC43LDAtMS40LDAuMi0yLDAuNmwtNC00VjhWNFYySDgmIzEwOyYjOTtINEgydjJ2NHYyaDJoNGgwLjZsNCw0Yy0wLjQsMC42LTAuNiwxLjMtMC42LDJjMCwyLjIsMS44LDQsNCw0YzAuNywwLDEuNC0wLjIsMi0wLjZsNCw0VjI0djR2MmgyaDRoMnYtMnYtNHYtMkgyOHogTTgsOEg0VjRoNFY4eiYjMTA7JiM5OyBNMTYsMThjLTEuMSwwLTItMC45LTItMnMwLjktMiwyLTJzMiwwLjksMiwyUzE3LjEsMTgsMTYsMTh6IE0yOCwyOGgtNHYtNGg0VjI4eiIvPiYjeGE7PC9zdmc+" parent="lDiJ3G_Knyag7TX1NRWr-8" vertex="1">
                    <mxGeometry x="46" y="242" width="60" height="60" as="geometry"/>
                </mxCell>
                <mxCell id="lDiJ3G_Knyag7TX1NRWr-10" value="Zone 2" style="shape=mxgraph.ibm.box;prType=zone;fontStyle=0;verticalAlign=top;align=left;spacingLeft=32;spacingTop=4;rounded=0;whiteSpace=wrap;html=1;strokeWidth=1;dashed=0;container=1;spacing=-4;collapsible=0;expand=0;recursiveResize=0;" parent="lDiJ3G_Knyag7TX1NRWr-8" vertex="1">
                    <mxGeometry x="38" y="92" width="75" height="60" as="geometry"/>
                </mxCell>
                <mxCell id="lDiJ3G_Knyag7TX1NRWr-13" value="" style="aspect=fixed;perimeter=ellipsePerimeter;html=1;align=center;shadow=0;dashed=0;fontColor=#4277BB;labelBackgroundColor=#ffffff;fontSize=12;spacingTop=3;image;image=img/lib/ibm/vpc/Instance.svg;" parent="lDiJ3G_Knyag7TX1NRWr-10" vertex="1">
                    <mxGeometry x="20" y="20" width="40" height="40" as="geometry"/>
                </mxCell>
                <mxCell id="lDiJ3G_Knyag7TX1NRWr-21" value="Zone 1" style="shape=mxgraph.ibm.box;prType=zone;fontStyle=0;verticalAlign=top;align=left;spacingLeft=32;spacingTop=4;rounded=0;whiteSpace=wrap;html=1;strokeWidth=1;dashed=0;container=1;spacing=-4;collapsible=0;expand=0;recursiveResize=0;" parent="lDiJ3G_Knyag7TX1NRWr-8" vertex="1">
                    <mxGeometry x="38" y="22" width="75" height="60" as="geometry"/>
                </mxCell>
                <mxCell id="lDiJ3G_Knyag7TX1NRWr-22" value="" style="aspect=fixed;perimeter=ellipsePerimeter;html=1;align=center;shadow=0;dashed=0;fontColor=#4277BB;labelBackgroundColor=#ffffff;fontSize=12;spacingTop=3;image;image=img/lib/ibm/vpc/Instance.svg;" parent="lDiJ3G_Knyag7TX1NRWr-21" vertex="1">
                    <mxGeometry x="20" y="20" width="40" height="40" as="geometry"/>
                </mxCell>
                <mxCell id="lDiJ3G_Knyag7TX1NRWr-23" value="Zone 3" style="shape=mxgraph.ibm.box;prType=zone;fontStyle=0;verticalAlign=top;align=left;spacingLeft=32;spacingTop=4;rounded=0;whiteSpace=wrap;html=1;strokeWidth=1;dashed=0;container=1;spacing=-4;collapsible=0;expand=0;recursiveResize=0;" parent="lDiJ3G_Knyag7TX1NRWr-8" vertex="1">
                    <mxGeometry x="38" y="162" width="75" height="60" as="geometry"/>
                </mxCell>
                <mxCell id="lDiJ3G_Knyag7TX1NRWr-24" value="" style="aspect=fixed;perimeter=ellipsePerimeter;html=1;align=center;shadow=0;dashed=0;fontColor=#4277BB;labelBackgroundColor=#ffffff;fontSize=12;spacingTop=3;image;image=img/lib/ibm/vpc/Instance.svg;" parent="lDiJ3G_Knyag7TX1NRWr-23" vertex="1">
                    <mxGeometry x="20" y="20" width="40" height="40" as="geometry"/>
                </mxCell>
                <mxCell id="lDiJ3G_Knyag7TX1NRWr-64" value="IBM private endpoint" style="text;html=1;strokeColor=none;fillColor=none;align=center;verticalAlign=middle;whiteSpace=wrap;rounded=0;" parent="lDiJ3G_Knyag7TX1NRWr-8" vertex="1">
                    <mxGeometry x="20" y="227" width="120" height="20" as="geometry"/>
                </mxCell>
                <mxCell id="lDiJ3G_Knyag7TX1NRWr-15" value="" style="aspect=fixed;perimeter=ellipsePerimeter;html=1;align=center;shadow=0;dashed=0;fontColor=#4277BB;labelBackgroundColor=#ffffff;fontSize=12;spacingTop=3;image;image=img/lib/ibm/vpc/TransitGateway.svg;" parent="1" vertex="1">
                    <mxGeometry x="-732.5" y="458" width="90" height="90" as="geometry"/>
                </mxCell>
                <mxCell id="lDiJ3G_Knyag7TX1NRWr-16" value="Region 2" style="shape=mxgraph.ibm.box;prType=region;fontStyle=0;verticalAlign=top;align=left;spacingLeft=32;spacingTop=4;fillColor=none;rounded=0;whiteSpace=wrap;html=1;strokeColor=#919191;strokeWidth=2;dashed=0;container=1;spacing=-4;collapsible=0;expand=0;recursiveResize=0;" parent="1" vertex="1">
                    <mxGeometry x="-665" y="558" width="150" height="110" as="geometry"/>
                </mxCell>
                <mxCell id="lDiJ3G_Knyag7TX1NRWr-25" value="Classic Infrastructure" style="shape=mxgraph.ibm.box;prType=classic;fontStyle=0;verticalAlign=top;align=left;spacingLeft=32;spacingTop=4;fillColor=none;rounded=0;whiteSpace=wrap;html=1;strokeColor=#4376BB;strokeWidth=2;dashed=0;container=1;spacing=-4;collapsible=0;expand=0;recursiveResize=0;" parent="1" vertex="1">
                    <mxGeometry x="-865" y="558" width="150" height="110" as="geometry"/>
                </mxCell>
                <mxCell id="lDiJ3G_Knyag7TX1NRWr-26" value="" style="aspect=fixed;perimeter=ellipsePerimeter;html=1;align=center;shadow=0;dashed=0;fontColor=#4277BB;labelBackgroundColor=#ffffff;fontSize=12;spacingTop=3;image;image=img/lib/ibm/vpc/Instance.svg;" parent="lDiJ3G_Knyag7TX1NRWr-25" vertex="1">
                    <mxGeometry x="45" y="30" width="60" height="60" as="geometry"/>
                </mxCell>
                <mxCell id="lDiJ3G_Knyag7TX1NRWr-29" value="" style="shape=image;verticalLabelPosition=bottom;verticalAlign=top;imageAspect=0;aspect=fixed;image=data:image/svg+xml,PHN2ZyB4bWxucz0iaHR0cDovL3d3dy53My5vcmcvMjAwMC9zdmciIHhtbG5zOnhsaW5rPSJodHRwOi8vd3d3LnczLm9yZy8xOTk5L3hsaW5rIiB3aWR0aD0iNzEuOTU2MDAxMjgxNzM4MjgiIGhlaWdodD0iNTUuNTA5MDAyNjg1NTQ2ODc1IiB2aWV3Qm94PSItNC4yNSAwLjA3Mjk5OTk1NDIyMzYzMjgxIDcxLjk1NjAwMTI4MTczODI4IDU1LjUwOTAwMjY4NTU0Njg3NSI+PGRlZnM+PHBhdGggZD0iTTE4LjYyNCAxNC43OTdhMTUuMzUzIDE1LjM1MyAwIDAgMC0yLjMxNi0uMTk0QzcuNzkzIDE0LjYwMy44OSAyMS41MDcuODkgMzAuMDIzYzAgOC41MTUgNi45MDMgMTUuNDE5IDE1LjQxOCAxNS40MTloMzAuODRjOC41MTUgMCAxNS40MTktNi45MDQgMTUuNDE5LTE1LjQxOSAwLTYuMzYxLTMuODUzLTExLjgxNy05LjM1LTE0LjE3NUM1Mi4yOTggNy4wNjEgNDQuODY5LjIxMiAzNS44NC4yMTJjLTguNjYzIDAtMTUuODM1IDYuMzEzLTE3LjIxNiAxNC41ODV6IiBpZD0iYSIvPjwvZGVmcz48ZyBmaWxsPSJub25lIiBmaWxsLXJ1bGU9ImV2ZW5vZGQiPjxwYXRoIGQ9Ik01My4zMjcgMjAuNjM2QzUyLjQwOCAxMS44NDkgNDQuOTc5IDUgMzUuOTUgNWMtOC42NjMgMC0xNS44MzUgNi4zMTMtMTcuMjE2IDE0LjU4NWExNS4yMjIgMTUuMjIyIDAgMCAwLTIuMzE1LS4xOTRDNy45MDMgMTkuMzkxIDEgMjYuMjk1IDEgMzQuODFjMCA4LjUxNiA2LjkwMyAxNS40MiAxNS40MTkgMTUuNDJoMzAuODM5YzguNTE1IDAgMTUuNDE5LTYuOTA0IDE1LjQxOS0xNS40MiAwLTYuMzYxLTMuODUzLTExLjgxNy05LjM1LTE0LjE3NCIgZmlsbD0iI0ZGRiIvPjxnIHRyYW5zZm9ybT0idHJhbnNsYXRlKDAgNSkiPjxtYXNrIGlkPSJiIiBmaWxsPSIjZmZmIj48dXNlIHhsaW5rOmhyZWY9IiNhIi8+PC9tYXNrPjxwYXRoIGZpbGw9IiNGRkYiIG1hc2s9InVybCgjYikiIGQ9Ik0uODkgNDUuNDQyaDYxLjY3N1YuMjEySC44OXoiLz48cGF0aCBmaWxsPSIjRkZGIiBtYXNrPSJ1cmwoI2IpIiBkPSJNLTQuMjUgNTAuNTgyaDcxLjk1NlYtNC45MjdILTQuMjV6Ii8+PHBhdGggc3Ryb2tlPSIjN0NDN0ZGIiBzdHJva2Utd2lkdGg9IjEuNSIgbWFzaz0idXJsKCNiKSIgZD0iTS00LjI1IDUwLjU4Mmg3MS45NTZWLTQuOTI3SC00LjI1eiIvPjxwYXRoIHN0cm9rZT0iIzdDQzdGRiIgc3Ryb2tlLXdpZHRoPSIxLjUiIG1hc2s9InVybCgjYikiIGQ9Ik0uODkgNDUuNDQyaDYxLjY3N1YuMjEySC44OXoiLz48L2c+PHBhdGggZD0iTTUzLjMyNyAyMC42MzZDNTIuNDA4IDExLjg0OSA0NC45NzkgNSAzNS45NSA1Yy04LjY2MyAwLTE1LjgzNSA2LjMxMy0xNy4yMTYgMTQuNTg1YTE1LjIyMiAxNS4yMjIgMCAwIDAtMi4zMTUtLjE5NEM3LjkwMyAxOS4zOTEgMSAyNi4yOTUgMSAzNC44MWMwIDguNTE2IDYuOTAzIDE1LjQyIDE1LjQxOSAxNS40MmgzMC44MzljOC41MTUgMCAxNS40MTktNi45MDQgMTUuNDE5LTE1LjQyIDAtNi4zNjEtMy44NTMtMTEuODE3LTkuMzUtMTQuMTc0eiIgc3Ryb2tlPSIjN0NDN0ZGIiBzdHJva2Utd2lkdGg9IjEuNSIvPjxwYXRoIGQ9Ik0xOS4wMjUgNDYuOTM5cy0yLjY0Mi4wMzEtNS40Ni0uODU3QzkuNjI1IDQ0LjgzOSA1IDQxLjcxNSA1IDM0LjcwMWMwLTYuNTA4IDQuMTA2LTEwLjA5IDcuODg0LTExLjQ2MSAzLjIwNS0xLjE2MyA4LjUwNy0uMzk4IDguNTA3LS4zOThTMjIuNjQxIDkgMzUuOTI3IDljMTMuNDI5IDAgMTMuOTk3IDEzLjc0OCAxMy45OTcgMTMuNzQ4czguNTk5IDIuMzggOC41OTggMTIuMjhjLS4xNzggOS45NTktMTAuNjkzIDExLjc5OS0xMi4yMjEgMTEuODc1LTEuNTI4LjA3Ni0yNy4yNzYuMDM2LTI3LjI3Ni4wMzYiIGZpbGw9IiM0MTc4QkUiLz48cGF0aCBmaWxsPSIjNkVFREQ4IiBkPSJNNTIuNDIxIDIwTDQwIDI3LjE1OGwxLjQ0MSAyLjQ5OCAxMi40MTktNy4xNTh6TTQxLjQzOSAzNWwxMS41NDEgNi42NTItMS40MzkgMi40OTdMNDAgMzcuNDk4eiIvPjxwYXRoIGQ9Ik02MC40NTQgMjIuOTIzYTYuNTU5IDYuNTU5IDAgMSAxLTkuNzkyLTguNzI4IDYuNTU5IDYuNTU5IDAgMCAxIDkuNzkyIDguNzI4IiBmaWxsPSIjRkZGIi8+PHBhdGggZD0iTTYwLjQ1NCAyMi45MjNhNi41NTkgNi41NTkgMCAxIDEtOS43OTItOC43MjggNi41NTkgNi41NTkgMCAwIDEgOS43OTIgOC43Mjh6IiBzdHJva2U9IiM2RUVERDgiIHN0cm9rZS13aWR0aD0iMiIvPjxwYXRoIGQ9Ik00MC40NTUgMzYuOTIzYTYuNTU5IDYuNTU5IDAgMSAxLTkuNzkyLTguNzI4IDYuNTU5IDYuNTU5IDAgMCAxIDkuNzkyIDguNzI4IiBmaWxsPSIjRkZGIi8+PHBhdGggZD0iTTQwLjQ1NSAzNi45MjNhNi41NTkgNi41NTkgMCAxIDEtOS43OTItOC43MjggNi41NTkgNi41NTkgMCAwIDEgOS43OTIgOC43Mjh6IiBzdHJva2U9IiM2RUVERDgiIHN0cm9rZS13aWR0aD0iMiIvPjxwYXRoIGQ9Ik02MC40NTUgNDkuOTIzYTYuNTYgNi41NiAwIDAgMS05Ljc5Mi04LjczIDYuNTYgNi41NiAwIDAgMSA5Ljc5MiA4LjczIiBmaWxsPSIjRkZGIi8+PHBhdGggZD0iTTYwLjQ1NSA0OS45MjNhNi41NiA2LjU2IDAgMCAxLTkuNzkyLTguNzMgNi41NiA2LjU2IDAgMCAxIDkuNzkyIDguNzN6IiBzdHJva2U9IiM2RUVERDgiIHN0cm9rZS13aWR0aD0iMiIvPjwvZz48L3N2Zz4=" parent="1" vertex="1">
                    <mxGeometry x="-880" y="-55" width="72" height="56" as="geometry"/>
                </mxCell>
                <mxCell id="lDiJ3G_Knyag7TX1NRWr-30" value="" style="aspect=fixed;perimeter=ellipsePerimeter;html=1;align=center;shadow=0;dashed=0;fontColor=#4277BB;labelBackgroundColor=#ffffff;fontSize=12;spacingTop=3;image;image=img/lib/ibm/users/browser.svg;" parent="1" vertex="1">
                    <mxGeometry x="-1080" y="170" width="80" height="80" as="geometry"/>
                </mxCell>
                <mxCell id="lDiJ3G_Knyag7TX1NRWr-32" value="" style="aspect=fixed;perimeter=ellipsePerimeter;html=1;align=center;shadow=0;dashed=0;fontColor=#4277BB;labelBackgroundColor=#ffffff;fontSize=12;spacingTop=3;image;image=img/lib/ibm/vpc/Instance.svg;" parent="1" vertex="1">
                    <mxGeometry x="-620" y="588" width="60" height="60" as="geometry"/>
                </mxCell>
                <mxCell id="lDiJ3G_Knyag7TX1NRWr-33" value="" style="aspect=fixed;perimeter=ellipsePerimeter;html=1;align=center;shadow=0;dashed=0;fontColor=#4277BB;labelBackgroundColor=#ffffff;fontSize=12;spacingTop=3;image;image=img/lib/ibm/vpc/Internet.svg;" parent="1" vertex="1">
                    <mxGeometry x="-890" y="178" width="64" height="64" as="geometry"/>
                </mxCell>
                <mxCell id="lDiJ3G_Knyag7TX1NRWr-39" value="Resources in same VPC" style="text;html=1;strokeColor=none;fillColor=none;align=center;verticalAlign=middle;whiteSpace=wrap;rounded=0;" parent="1" vertex="1">
                    <mxGeometry x="-442.5" y="360" width="85" height="20" as="geometry"/>
                </mxCell>
                <mxCell id="lDiJ3G_Knyag7TX1NRWr-44" value="VPN member 2" style="text;html=1;strokeColor=none;fillColor=none;align=center;verticalAlign=middle;whiteSpace=wrap;rounded=0;" parent="1" vertex="1">
                    <mxGeometry x="-750" y="310" width="130" height="20" as="geometry"/>
                </mxCell>
                <mxCell id="lDiJ3G_Knyag7TX1NRWr-45" value="" style="endArrow=none;dashed=1;html=1;dashPattern=1 3;strokeWidth=2;exitX=0.5;exitY=0;exitDx=0;exitDy=0;entryX=0;entryY=0.75;entryDx=0;entryDy=0;strokeColor=#0000FF;" parent="1" source="lDiJ3G_Knyag7TX1NRWr-30" target="lDiJ3G_Knyag7TX1NRWr-29" edge="1">
                    <mxGeometry width="50" height="50" relative="1" as="geometry">
                        <mxPoint x="-1040" y="150" as="sourcePoint"/>
                        <mxPoint x="-990" y="100" as="targetPoint"/>
                        <Array as="points">
                            <mxPoint x="-1040" y="-13"/>
                            <mxPoint x="-970" y="-13"/>
                        </Array>
                    </mxGeometry>
                </mxCell>
                <mxCell id="lDiJ3G_Knyag7TX1NRWr-46" value="&lt;font style=&quot;font-size: 15px&quot;&gt;VPN server hostname&amp;nbsp;&lt;span style=&quot;color: rgb(49 , 49 , 49) ; font-family: &amp;#34;arial&amp;#34; , sans-serif ; text-align: left&quot;&gt;resolution&lt;/span&gt;&lt;/font&gt;" style="edgeLabel;html=1;align=center;verticalAlign=middle;resizable=0;points=[];" parent="lDiJ3G_Knyag7TX1NRWr-45" vertex="1" connectable="0">
                    <mxGeometry x="-0.0488" y="-3" relative="1" as="geometry">
                        <mxPoint x="-3" y="66" as="offset"/>
                    </mxGeometry>
                </mxCell>
                <mxCell id="lDiJ3G_Knyag7TX1NRWr-49" value="&lt;span style=&quot;font-size: 11px ; background-color: rgb(255 , 255 , 255)&quot;&gt;client authentication&lt;/span&gt;" style="text;html=1;strokeColor=none;fillColor=none;align=center;verticalAlign=middle;whiteSpace=wrap;rounded=0;" parent="1" vertex="1">
                    <mxGeometry x="-735" y="30" width="75" height="20" as="geometry"/>
                </mxCell>
                <mxCell id="lDiJ3G_Knyag7TX1NRWr-50" value="" style="endArrow=classic;html=1;exitX=1;exitY=0.5;exitDx=0;exitDy=0;entryX=0;entryY=0.5;entryDx=0;entryDy=0;strokeColor=#0000FF;" parent="1" source="lDiJ3G_Knyag7TX1NRWr-30" target="lDiJ3G_Knyag7TX1NRWr-33" edge="1">
                    <mxGeometry width="50" height="50" relative="1" as="geometry">
                        <mxPoint x="-970" y="330" as="sourcePoint"/>
                        <mxPoint x="-920" y="280" as="targetPoint"/>
                    </mxGeometry>
                </mxCell>
                <mxCell id="lDiJ3G_Knyag7TX1NRWr-51" value="" style="endArrow=classic;html=1;exitX=0.5;exitY=0;exitDx=0;exitDy=0;entryX=0;entryY=0.544;entryDx=0;entryDy=0;entryPerimeter=0;strokeColor=#0000FF;" parent="1" source="lDiJ3G_Knyag7TX1NRWr-33" target="lDiJ3G_Knyag7TX1NRWr-4" edge="1">
                    <mxGeometry width="50" height="50" relative="1" as="geometry">
                        <mxPoint x="-880" y="340" as="sourcePoint"/>
                        <mxPoint x="-830" y="290" as="targetPoint"/>
                        <Array as="points">
                            <mxPoint x="-858" y="149"/>
                        </Array>
                    </mxGeometry>
                </mxCell>
                <mxCell id="lDiJ3G_Knyag7TX1NRWr-52" value="" style="endArrow=classic;html=1;entryX=0.007;entryY=0.49;entryDx=0;entryDy=0;entryPerimeter=0;exitX=0.5;exitY=1;exitDx=0;exitDy=0;strokeColor=#0000FF;" parent="1" source="lDiJ3G_Knyag7TX1NRWr-33" target="lDiJ3G_Knyag7TX1NRWr-5" edge="1">
                    <mxGeometry width="50" height="50" relative="1" as="geometry">
                        <mxPoint x="-830" y="220" as="sourcePoint"/>
                        <mxPoint x="-950" y="360" as="targetPoint"/>
                        <Array as="points">
                            <mxPoint x="-858" y="279"/>
                        </Array>
                    </mxGeometry>
                </mxCell>
                <mxCell id="lDiJ3G_Knyag7TX1NRWr-61" value="" style="endArrow=classic;startArrow=none;html=1;exitX=0.99;exitY=0.546;exitDx=0;exitDy=0;exitPerimeter=0;entryX=-0.002;entryY=0.541;entryDx=0;entryDy=0;entryPerimeter=0;startFill=0;strokeColor=#0000FF;" parent="1" source="lDiJ3G_Knyag7TX1NRWr-4" target="lDiJ3G_Knyag7TX1NRWr-21" edge="1">
                    <mxGeometry width="50" height="50" relative="1" as="geometry">
                        <mxPoint x="-550" y="160" as="sourcePoint"/>
                        <mxPoint x="-500" y="110" as="targetPoint"/>
                        <Array as="points">
                            <mxPoint x="-560" y="149"/>
                            <mxPoint x="-560" y="104"/>
                        </Array>
                    </mxGeometry>
                </mxCell>
                <mxCell id="lDiJ3G_Knyag7TX1NRWr-62" value="" style="endArrow=classic;startArrow=none;html=1;exitX=1;exitY=0.559;exitDx=0;exitDy=0;exitPerimeter=0;entryX=0.014;entryY=0.531;entryDx=0;entryDy=0;entryPerimeter=0;startFill=0;strokeColor=#0000FF;" parent="1" source="lDiJ3G_Knyag7TX1NRWr-4" target="lDiJ3G_Knyag7TX1NRWr-10" edge="1">
                    <mxGeometry width="50" height="50" relative="1" as="geometry">
                        <mxPoint x="-550" y="210" as="sourcePoint"/>
                        <mxPoint x="-500" y="160" as="targetPoint"/>
                        <Array as="points">
                            <mxPoint x="-560" y="150"/>
                            <mxPoint x="-560" y="174"/>
                        </Array>
                    </mxGeometry>
                </mxCell>
                <mxCell id="lDiJ3G_Knyag7TX1NRWr-63" value="" style="endArrow=classic;startArrow=none;html=1;exitX=1.009;exitY=0.546;exitDx=0;exitDy=0;exitPerimeter=0;startFill=0;strokeColor=#0000FF;" parent="1" source="lDiJ3G_Knyag7TX1NRWr-4" edge="1">
                    <mxGeometry width="50" height="50" relative="1" as="geometry">
                        <mxPoint x="-540" y="270" as="sourcePoint"/>
                        <mxPoint x="-440" y="240" as="targetPoint"/>
                        <Array as="points">
                            <mxPoint x="-560" y="149"/>
                            <mxPoint x="-560" y="240"/>
                        </Array>
                    </mxGeometry>
                </mxCell>
                <mxCell id="lDiJ3G_Knyag7TX1NRWr-65" value="" style="endArrow=classic;startArrow=none;html=1;startFill=0;entryX=0;entryY=0.25;entryDx=0;entryDy=0;strokeColor=#0000FF;" parent="1" target="lDiJ3G_Knyag7TX1NRWr-18" edge="1">
                    <mxGeometry width="50" height="50" relative="1" as="geometry">
                        <mxPoint x="-615" y="149" as="sourcePoint"/>
                        <mxPoint x="-431" y="320" as="targetPoint"/>
                        <Array as="points">
                            <mxPoint x="-560" y="149"/>
                            <mxPoint x="-560" y="307"/>
                        </Array>
                    </mxGeometry>
                </mxCell>
                <mxCell id="lDiJ3G_Knyag7TX1NRWr-77" value="Transit gateway" style="text;html=1;strokeColor=none;fillColor=none;align=center;verticalAlign=middle;whiteSpace=wrap;rounded=0;" parent="1" vertex="1">
                    <mxGeometry x="-732.5" y="450" width="97" height="20" as="geometry"/>
                </mxCell>
                <mxCell id="lDiJ3G_Knyag7TX1NRWr-78" value="Resources out of the VPC" style="text;html=1;strokeColor=none;fillColor=none;align=center;verticalAlign=middle;whiteSpace=wrap;rounded=0;" parent="1" vertex="1">
                    <mxGeometry x="-725" y="680" width="90" height="20" as="geometry"/>
                </mxCell>
                <mxCell id="lDiJ3G_Knyag7TX1NRWr-79" value="" style="endArrow=none;startArrow=classic;html=1;entryX=0.481;entryY=0.999;entryDx=0;entryDy=0;entryPerimeter=0;exitX=0.5;exitY=0;exitDx=0;exitDy=0;endFill=0;strokeColor=#0000FF;" parent="1" source="lDiJ3G_Knyag7TX1NRWr-15" target="lDiJ3G_Knyag7TX1NRWr-7" edge="1">
                    <mxGeometry width="50" height="50" relative="1" as="geometry">
                        <mxPoint x="-820" y="450" as="sourcePoint"/>
                        <mxPoint x="-770" y="400" as="targetPoint"/>
                    </mxGeometry>
                </mxCell>
                <mxCell id="lDiJ3G_Knyag7TX1NRWr-80" value="" style="endArrow=none;startArrow=classic;html=1;exitX=0.472;exitY=-0.013;exitDx=0;exitDy=0;exitPerimeter=0;entryX=0;entryY=0.5;entryDx=0;entryDy=0;endFill=0;strokeColor=#0000FF;" parent="1" source="lDiJ3G_Knyag7TX1NRWr-25" target="lDiJ3G_Knyag7TX1NRWr-15" edge="1">
                    <mxGeometry width="50" height="50" relative="1" as="geometry">
                        <mxPoint x="-950" y="470" as="sourcePoint"/>
                        <mxPoint x="-900" y="420" as="targetPoint"/>
                        <Array as="points">
                            <mxPoint x="-794" y="503"/>
                        </Array>
                    </mxGeometry>
                </mxCell>
                <mxCell id="lDiJ3G_Knyag7TX1NRWr-81" value="" style="endArrow=classic;startArrow=none;html=1;exitX=1;exitY=0.5;exitDx=0;exitDy=0;entryX=0.509;entryY=0.004;entryDx=0;entryDy=0;entryPerimeter=0;startFill=0;strokeColor=#0000FF;" parent="1" source="lDiJ3G_Knyag7TX1NRWr-15" target="lDiJ3G_Knyag7TX1NRWr-16" edge="1">
                    <mxGeometry width="50" height="50" relative="1" as="geometry">
                        <mxPoint x="-610" y="540" as="sourcePoint"/>
                        <mxPoint x="-560" y="490" as="targetPoint"/>
                        <Array as="points">
                            <mxPoint x="-589" y="503"/>
                        </Array>
                    </mxGeometry>
                </mxCell>
                <mxCell id="lDiJ3G_Knyag7TX1NRWr-82" value="" style="endArrow=classic;html=1;entryX=0.013;entryY=0.822;entryDx=0;entryDy=0;entryPerimeter=0;exitX=1.001;exitY=0.49;exitDx=0;exitDy=0;exitPerimeter=0;strokeColor=#0000FF;" parent="1" source="lDiJ3G_Knyag7TX1NRWr-5" target="lDiJ3G_Knyag7TX1NRWr-21" edge="1">
                    <mxGeometry width="50" height="50" relative="1" as="geometry">
                        <mxPoint x="-614" y="279" as="sourcePoint"/>
                        <mxPoint x="-450" y="116" as="targetPoint"/>
                        <Array as="points">
                            <mxPoint x="-530" y="279"/>
                            <mxPoint x="-530" y="121"/>
                        </Array>
                    </mxGeometry>
                </mxCell>
                <mxCell id="lDiJ3G_Knyag7TX1NRWr-83" value="" style="endArrow=classic;html=1;exitX=1.001;exitY=0.491;exitDx=0;exitDy=0;exitPerimeter=0;strokeColor=#0000FF;" parent="1" source="lDiJ3G_Knyag7TX1NRWr-5" edge="1">
                    <mxGeometry width="50" height="50" relative="1" as="geometry">
                        <mxPoint x="-616" y="277" as="sourcePoint"/>
                        <mxPoint x="-442" y="190" as="targetPoint"/>
                        <Array as="points">
                            <mxPoint x="-530" y="277"/>
                            <mxPoint x="-530" y="190"/>
                        </Array>
                    </mxGeometry>
                </mxCell>
                <mxCell id="lDiJ3G_Knyag7TX1NRWr-84" value="" style="endArrow=classic;html=1;exitX=1.001;exitY=0.496;exitDx=0;exitDy=0;exitPerimeter=0;entryX=-0.009;entryY=0.822;entryDx=0;entryDy=0;entryPerimeter=0;strokeColor=#0000FF;" parent="1" source="lDiJ3G_Knyag7TX1NRWr-5" target="lDiJ3G_Knyag7TX1NRWr-23" edge="1">
                    <mxGeometry width="50" height="50" relative="1" as="geometry">
                        <mxPoint x="-610" y="280" as="sourcePoint"/>
                        <mxPoint x="-500" y="330" as="targetPoint"/>
                        <Array as="points">
                            <mxPoint x="-530" y="280"/>
                            <mxPoint x="-530" y="261"/>
                        </Array>
                    </mxGeometry>
                </mxCell>
                <mxCell id="lDiJ3G_Knyag7TX1NRWr-87" value="" style="endArrow=classic;html=1;exitX=0.999;exitY=0.494;exitDx=0;exitDy=0;exitPerimeter=0;entryX=0;entryY=0.75;entryDx=0;entryDy=0;strokeColor=#0000FF;" parent="1" source="lDiJ3G_Knyag7TX1NRWr-5" target="lDiJ3G_Knyag7TX1NRWr-18" edge="1">
                    <mxGeometry width="50" height="50" relative="1" as="geometry">
                        <mxPoint x="-610" y="280" as="sourcePoint"/>
                        <mxPoint x="-550" y="310" as="targetPoint"/>
                        <Array as="points">
                            <mxPoint x="-530" y="279"/>
                            <mxPoint x="-530" y="337"/>
                        </Array>
                    </mxGeometry>
                </mxCell>
                <mxCell id="lDiJ3G_Knyag7TX1NRWr-88" value="" style="endArrow=none;dashed=1;html=1;dashPattern=1 3;strokeWidth=2;strokeColor=#0000FF;" parent="1" edge="1">
                    <mxGeometry width="50" height="50" relative="1" as="geometry">
                        <mxPoint x="-1046" y="549" as="sourcePoint"/>
                        <mxPoint x="-956" y="549" as="targetPoint"/>
                    </mxGeometry>
                </mxCell>
                <mxCell id="lDiJ3G_Knyag7TX1NRWr-89" value="DNS query" style="text;html=1;strokeColor=none;fillColor=none;align=center;verticalAlign=middle;whiteSpace=wrap;rounded=0;" parent="1" vertex="1">
                    <mxGeometry x="-1046" y="530" width="100" height="20" as="geometry"/>
                </mxCell>
                <mxCell id="lDiJ3G_Knyag7TX1NRWr-90" value="" style="endArrow=classic;html=1;strokeWidth=2;strokeColor=#0000FF;endFill=1;" parent="1" edge="1">
                    <mxGeometry width="50" height="50" relative="1" as="geometry">
                        <mxPoint x="-1046" y="583.79" as="sourcePoint"/>
                        <mxPoint x="-956" y="583.79" as="targetPoint"/>
                    </mxGeometry>
                </mxCell>
                <mxCell id="lDiJ3G_Knyag7TX1NRWr-91" value="VPN traffic" style="text;html=1;strokeColor=none;fillColor=none;align=center;verticalAlign=middle;whiteSpace=wrap;rounded=0;" parent="1" vertex="1">
                    <mxGeometry x="-1046" y="564.79" width="100" height="20" as="geometry"/>
                </mxCell>
                <mxCell id="lDiJ3G_Knyag7TX1NRWr-92" value="" style="endArrow=classic;html=1;strokeWidth=2;endFill=1;strokeColor=#FF0000;" parent="1" edge="1">
                    <mxGeometry width="50" height="50" relative="1" as="geometry">
                        <mxPoint x="-1047" y="623.79" as="sourcePoint"/>
                        <mxPoint x="-957" y="623.79" as="targetPoint"/>
                    </mxGeometry>
                </mxCell>
                <mxCell id="lDiJ3G_Knyag7TX1NRWr-93" value="control traffic" style="text;html=1;strokeColor=none;fillColor=none;align=center;verticalAlign=middle;whiteSpace=wrap;rounded=0;" parent="1" vertex="1">
                    <mxGeometry x="-1047" y="604.79" width="100" height="20" as="geometry"/>
                </mxCell>
                <mxCell id="lDiJ3G_Knyag7TX1NRWr-94" value="User" style="text;html=1;strokeColor=none;fillColor=none;align=center;verticalAlign=middle;whiteSpace=wrap;rounded=0;" parent="1" vertex="1">
                    <mxGeometry x="-1064" y="261" width="37" height="20" as="geometry"/>
                </mxCell>
            </root>
        </mxGraphModel>
    </diagram>
    <diagram id="CMTRFiVCGTOxvZ_s0fc9" name="Access VPC within a deployed MZR">
        <mxGraphModel dx="1945" dy="481" grid="0" gridSize="10" guides="1" tooltips="1" connect="1" arrows="1" fold="1" page="0" pageScale="1" pageWidth="850" pageHeight="1100" math="0" shadow="0">
            <root>
                <mxCell id="eCtX5nm03-OrFFX8MalM-0"/>
                <mxCell id="eCtX5nm03-OrFFX8MalM-1" parent="eCtX5nm03-OrFFX8MalM-0"/>
                <mxCell id="nxBYaGgMGpCkZTyIQCUJ-1" value="Region 1" style="shape=mxgraph.ibm.box;prType=region;fontStyle=0;verticalAlign=top;align=left;spacingLeft=32;spacingTop=4;rounded=0;whiteSpace=wrap;html=1;strokeWidth=2;dashed=0;container=1;spacing=-4;collapsible=0;expand=0;recursiveResize=0;fillColor=#dae8fc;strokeColor=#6c8ebf;" parent="eCtX5nm03-OrFFX8MalM-1" vertex="1">
                    <mxGeometry x="-826" y="40" width="216" height="355" as="geometry"/>
                </mxCell>
                <mxCell id="nxBYaGgMGpCkZTyIQCUJ-2" value="" style="rounded=0;whiteSpace=wrap;html=1;" parent="nxBYaGgMGpCkZTyIQCUJ-1" vertex="1">
                    <mxGeometry x="20" y="52" width="160" height="248" as="geometry"/>
                </mxCell>
                <mxCell id="nxBYaGgMGpCkZTyIQCUJ-3" value="Zone 1" style="shape=mxgraph.ibm.box;prType=zone;fontStyle=0;verticalAlign=top;align=left;spacingLeft=32;spacingTop=4;rounded=0;whiteSpace=wrap;html=1;strokeWidth=1;dashed=0;container=1;spacing=-4;collapsible=0;expand=0;recursiveResize=0;" parent="nxBYaGgMGpCkZTyIQCUJ-1" vertex="1">
                    <mxGeometry x="35" y="60" width="130" height="90" as="geometry"/>
                </mxCell>
                <mxCell id="nxBYaGgMGpCkZTyIQCUJ-4" value="" style="shape=image;aspect=fixed;image=data:image/svg+xml,PD94bWwgdmVyc2lvbj0iMS4wIiBlbmNvZGluZz0idXRmLTgiPz48c3ZnIHZlcnNpb249IjEuMSIgaWQ9IlBhZGRpbmciIHhtbG5zPSJodHRwOi8vd3d3LnczLm9yZy8yMDAwL3N2ZyIgeG1sbnM6eGxpbms9Imh0dHA6Ly93d3cudzMub3JnLzE5OTkveGxpbmsiIHg9IjBweCIgeT0iMHB4IiB2aWV3Qm94PSIwIDAgMzIgMzIiIHN0eWxlPSJlbmFibGUtYmFja2dyb3VuZDpuZXcgMCAwIDMyIDMyOyIgeG1sOnNwYWNlPSJwcmVzZXJ2ZSI+PGRlZnM+PGxpbmVhckdyYWRpZW50IGlkPSJhIiB4MT0iMTEuNTQiIHkxPSIyOS42MyIgeDI9IjExLjU0IiB5Mj0iMi4zNyIgZ3JhZGllbnRVbml0cz0idXNlclNwYWNlT25Vc2UiPjxzdG9wIG9mZnNldD0iMCIgc3RvcC1jb2xvcj0iI2ZmZiIgc3RvcC1vcGFjaXR5PSIwIi8+PHN0b3Agb2Zmc2V0PSIwLjQ2IiBzdG9wLWNvbG9yPSIjZmZmIi8+PC9saW5lYXJHcmFkaWVudD48bWFzayBpZD0iYiIgeD0iMCIgeT0iMCIgd2lkdGg9IjMyIiBoZWlnaHQ9IjMyIiBtYXNrVW5pdHM9InVzZXJTcGFjZU9uVXNlIj48cGF0aCBkPSJNMTMuNywyOS42M0ExOC43NywxOC43NywwLDAsMSw4LDE2LDE4Ljc3LDE4Ljc3LDAsMCwxLDEzLjcsMi4zN2wxLjM3LDEuNDZBMTYuNzQsMTYuNzQsMCwwLDAsMTAsMTZhMTYuNzQsMTYuNzQsMCwwLDAsNS4wNywxMi4xN1oiIGZpbGw9InVybCgjYSkiLz48cGF0aCBkPSJNMTYsMmExNCwxNCwwLDAsMCwwLDI4aDFWMlpNMTUsNFYxNUg0LjA1QTEyLDEyLDAsMCwxLDE1LDRaTTQuMDUsMTdIMTVWMjhBMTIsMTIsMCwwLDEsNC4wNSwxN1oiIGZpbGw9IiNmZmYiLz48L21hc2s+PGxpbmVhckdyYWRpZW50IGlkPSJjIiB5MT0iMzIiIHgyPSIzMiIgZ3JhZGllbnRVbml0cz0idXNlclNwYWNlT25Vc2UiPjxzdG9wIG9mZnNldD0iMC4xIiBzdG9wLWNvbG9yPSIjZWU1Mzk2Ii8+PHN0b3Agb2Zmc2V0PSIwLjkiIHN0b3AtY29sb3I9IiM4YTNmZmMiLz48L2xpbmVhckdyYWRpZW50PjwvZGVmcz48ZyBtYXNrPSJ1cmwoI2IpIj48cmVjdCB3aWR0aD0iMzIiIGhlaWdodD0iMzIiIGZpbGw9InVybCgjYykiLz48L2c+PHBhdGggZD0iTTI5LDIzSDI4VjIxYTMsMywwLDAsMC02LDB2MkgyMWExLDEsMCwwLDAtMSwxdjVhMSwxLDAsMCwwLDEsMWg4YTEsMSwwLDAsMCwxLTFWMjRBMSwxLDAsMCwwLDI5LDIzWm0tNS0yYTEsMSwwLDAsMSwyLDB2MkgyNFptNCw3SDIyVjI1aDZaIiBmaWxsPSIjMDAxZDZjIi8+PGNpcmNsZSBjeD0iMjUiIGN5PSIxNSIgcj0iMSIgZmlsbD0iIzAwMWQ2YyIvPjxjaXJjbGUgY3g9IjI1IiBjeT0iMTEiIHI9IjEiIGZpbGw9IiMwMDFkNmMiLz48cGF0aCBkPSJNMjUsOGEzLDMsMCwxLDAtMy0zQTMsMywwLDAsMCwyNSw4Wm0wLTRhMSwxLDAsMSwxLTEsMUExLDEsMCwwLDEsMjUsNFoiIGZpbGw9IiMwMDFkNmMiLz48L3N2Zz4=;" parent="nxBYaGgMGpCkZTyIQCUJ-3" vertex="1">
                    <mxGeometry x="40" y="20" width="50" height="50" as="geometry"/>
                </mxCell>
                <mxCell id="nxBYaGgMGpCkZTyIQCUJ-5" value="VPN member 1" style="text;html=1;strokeColor=none;fillColor=none;align=center;verticalAlign=middle;whiteSpace=wrap;rounded=0;" parent="nxBYaGgMGpCkZTyIQCUJ-3" vertex="1">
                    <mxGeometry y="68" width="130" height="20" as="geometry"/>
                </mxCell>
                <mxCell id="nxBYaGgMGpCkZTyIQCUJ-6" value="Zone 2" style="shape=mxgraph.ibm.box;prType=zone;fontStyle=0;verticalAlign=top;align=left;spacingLeft=32;spacingTop=4;rounded=0;whiteSpace=wrap;html=1;strokeWidth=1;dashed=0;container=1;spacing=-4;collapsible=0;expand=0;recursiveResize=0;" parent="nxBYaGgMGpCkZTyIQCUJ-1" vertex="1">
                    <mxGeometry x="30" y="190" width="135" height="100" as="geometry"/>
                </mxCell>
                <mxCell id="nxBYaGgMGpCkZTyIQCUJ-7" value="" style="shape=image;aspect=fixed;image=data:image/svg+xml,PD94bWwgdmVyc2lvbj0iMS4wIiBlbmNvZGluZz0idXRmLTgiPz48c3ZnIHZlcnNpb249IjEuMSIgaWQ9IlBhZGRpbmciIHhtbG5zPSJodHRwOi8vd3d3LnczLm9yZy8yMDAwL3N2ZyIgeG1sbnM6eGxpbms9Imh0dHA6Ly93d3cudzMub3JnLzE5OTkveGxpbmsiIHg9IjBweCIgeT0iMHB4IiB2aWV3Qm94PSIwIDAgMzIgMzIiIHN0eWxlPSJlbmFibGUtYmFja2dyb3VuZDpuZXcgMCAwIDMyIDMyOyIgeG1sOnNwYWNlPSJwcmVzZXJ2ZSI+PGRlZnM+PGxpbmVhckdyYWRpZW50IGlkPSJhIiB4MT0iMTEuNTQiIHkxPSIyOS42MyIgeDI9IjExLjU0IiB5Mj0iMi4zNyIgZ3JhZGllbnRVbml0cz0idXNlclNwYWNlT25Vc2UiPjxzdG9wIG9mZnNldD0iMCIgc3RvcC1jb2xvcj0iI2ZmZiIgc3RvcC1vcGFjaXR5PSIwIi8+PHN0b3Agb2Zmc2V0PSIwLjQ2IiBzdG9wLWNvbG9yPSIjZmZmIi8+PC9saW5lYXJHcmFkaWVudD48bWFzayBpZD0iYiIgeD0iMCIgeT0iMCIgd2lkdGg9IjMyIiBoZWlnaHQ9IjMyIiBtYXNrVW5pdHM9InVzZXJTcGFjZU9uVXNlIj48cGF0aCBkPSJNMTMuNywyOS42M0ExOC43NywxOC43NywwLDAsMSw4LDE2LDE4Ljc3LDE4Ljc3LDAsMCwxLDEzLjcsMi4zN2wxLjM3LDEuNDZBMTYuNzQsMTYuNzQsMCwwLDAsMTAsMTZhMTYuNzQsMTYuNzQsMCwwLDAsNS4wNywxMi4xN1oiIGZpbGw9InVybCgjYSkiLz48cGF0aCBkPSJNMTYsMmExNCwxNCwwLDAsMCwwLDI4aDFWMlpNMTUsNFYxNUg0LjA1QTEyLDEyLDAsMCwxLDE1LDRaTTQuMDUsMTdIMTVWMjhBMTIsMTIsMCwwLDEsNC4wNSwxN1oiIGZpbGw9IiNmZmYiLz48L21hc2s+PGxpbmVhckdyYWRpZW50IGlkPSJjIiB5MT0iMzIiIHgyPSIzMiIgZ3JhZGllbnRVbml0cz0idXNlclNwYWNlT25Vc2UiPjxzdG9wIG9mZnNldD0iMC4xIiBzdG9wLWNvbG9yPSIjZWU1Mzk2Ii8+PHN0b3Agb2Zmc2V0PSIwLjkiIHN0b3AtY29sb3I9IiM4YTNmZmMiLz48L2xpbmVhckdyYWRpZW50PjwvZGVmcz48ZyBtYXNrPSJ1cmwoI2IpIj48cmVjdCB3aWR0aD0iMzIiIGhlaWdodD0iMzIiIGZpbGw9InVybCgjYykiLz48L2c+PHBhdGggZD0iTTI5LDIzSDI4VjIxYTMsMywwLDAsMC02LDB2MkgyMWExLDEsMCwwLDAtMSwxdjVhMSwxLDAsMCwwLDEsMWg4YTEsMSwwLDAsMCwxLTFWMjRBMSwxLDAsMCwwLDI5LDIzWm0tNS0yYTEsMSwwLDAsMSwyLDB2MkgyNFptNCw3SDIyVjI1aDZaIiBmaWxsPSIjMDAxZDZjIi8+PGNpcmNsZSBjeD0iMjUiIGN5PSIxNSIgcj0iMSIgZmlsbD0iIzAwMWQ2YyIvPjxjaXJjbGUgY3g9IjI1IiBjeT0iMTEiIHI9IjEiIGZpbGw9IiMwMDFkNmMiLz48cGF0aCBkPSJNMjUsOGEzLDMsMCwxLDAtMy0zQTMsMywwLDAsMCwyNSw4Wm0wLTRhMSwxLDAsMSwxLTEsMUExLDEsMCwwLDEsMjUsNFoiIGZpbGw9IiMwMDFkNmMiLz48L3N2Zz4=;" parent="nxBYaGgMGpCkZTyIQCUJ-6" vertex="1">
                    <mxGeometry x="40" y="20" width="50" height="50" as="geometry"/>
                </mxCell>
                <mxCell id="nxBYaGgMGpCkZTyIQCUJ-36" value="VPN member 2" style="text;html=1;strokeColor=none;fillColor=none;align=center;verticalAlign=middle;whiteSpace=wrap;rounded=0;" parent="nxBYaGgMGpCkZTyIQCUJ-6" vertex="1">
                    <mxGeometry y="80" width="130" height="20" as="geometry"/>
                </mxCell>
                <mxCell id="nxBYaGgMGpCkZTyIQCUJ-8" value="VPN server service" style="text;html=1;strokeColor=none;fillColor=none;align=center;verticalAlign=middle;whiteSpace=wrap;rounded=0;" parent="nxBYaGgMGpCkZTyIQCUJ-1" vertex="1">
                    <mxGeometry x="57.5" y="325" width="85" height="20" as="geometry"/>
                </mxCell>
                <mxCell id="nxBYaGgMGpCkZTyIQCUJ-9" value="&lt;font style=&quot;font-size: 7px&quot;&gt;VPN server:&lt;br&gt;8647a2e7cb79.us-south1.vpn-server.appdomain.cloud&lt;/font&gt;" style="text;html=1;strokeColor=none;fillColor=none;align=center;verticalAlign=middle;whiteSpace=wrap;rounded=0;" parent="nxBYaGgMGpCkZTyIQCUJ-1" vertex="1">
                    <mxGeometry x="18" y="162" width="180" height="20" as="geometry"/>
                </mxCell>
                <mxCell id="nxBYaGgMGpCkZTyIQCUJ-18" value="Region 1" style="shape=mxgraph.ibm.box;prType=region;fontStyle=0;verticalAlign=top;align=left;spacingLeft=32;spacingTop=4;rounded=0;whiteSpace=wrap;html=1;strokeWidth=2;dashed=0;container=1;spacing=-4;collapsible=0;expand=0;recursiveResize=0;" parent="eCtX5nm03-OrFFX8MalM-1" vertex="1">
                    <mxGeometry x="-480" y="40" width="160" height="350" as="geometry"/>
                </mxCell>
                <mxCell id="nxBYaGgMGpCkZTyIQCUJ-19" value="" style="shape=image;verticalLabelPosition=bottom;verticalAlign=top;imageAspect=0;aspect=fixed;image=data:image/svg+xml,PHN2ZyB4bWxucz0iaHR0cDovL3d3dy53My5vcmcvMjAwMC9zdmciIHhtbG5zOnhsaW5rPSJodHRwOi8vd3d3LnczLm9yZy8xOTk5L3hsaW5rIiB2ZXJzaW9uPSIxLjEiIGlkPSJ2cGNfZW5kcG9pbnRfaWNvbiIgeD0iMHB4IiB5PSIwcHgiIHZpZXdCb3g9IjIgMiAyOCAyOCIgc3R5bGU9ImVuYWJsZS1iYWNrZ3JvdW5kOm5ldyAwIDAgMzIgMzI7IiB4bWw6c3BhY2U9InByZXNlcnZlIiB3aWR0aD0iMjgiIGhlaWdodD0iMjgiPiYjeGE7PHN0eWxlIHR5cGU9InRleHQvY3NzIj4mI3hhOwkuc3Qwe2ZpbGw6dXJsKCN2cGNfZ3JhZGllbnRfYm90dG9tXzFfKTt9JiN4YTsJLnN0MXtmaWxsOnVybCgjdnBjX2dyYWRpZW50X3RvcF8xXyk7fSYjeGE7CS5zdDJ7ZmlsbDp1cmwoI2VuZHBvaW50X2dyYWRpZW50X3JpZ2h0XzFfKTt9JiN4YTsJLnN0M3tmaWxsOnVybCgjZW5kcG9pbnRfZ3JhZGllbnRfbGVmdF8xXyk7fSYjeGE7CS5zdDR7ZmlsbDojMDMxOTgxO30mI3hhOzwvc3R5bGU+JiN4YTs8bGluZWFyR3JhZGllbnQgaWQ9InZwY19ncmFkaWVudF9ib3R0b21fMV8iIGdyYWRpZW50VW5pdHM9InVzZXJTcGFjZU9uVXNlIiB4MT0iMC4zNzA4IiB5MT0iMzEuNTI5MiIgeDI9IjMxLjUxMDYiIHkyPSIwLjM4OTQiPiYjeGE7CTxzdG9wIG9mZnNldD0iMC4xIiBzdHlsZT0ic3RvcC1jb2xvcjojODgzRkZBIi8+JiN4YTsJPHN0b3Agb2Zmc2V0PSIwLjkiIHN0eWxlPSJzdG9wLWNvbG9yOiNFQzUzODgiLz4mI3hhOzwvbGluZWFyR3JhZGllbnQ+JiN4YTs8cGF0aCBpZD0idnBjX2dyYWRpZW50X2JvdHRvbSIgY2xhc3M9InN0MCIgZD0iTTIwLDI3SDdjLTEuMSwwLTItMC45LTItMlYxMS44aDJWMjVoMTNWMjd6Ii8+JiN4YTs8bGluZWFyR3JhZGllbnQgaWQ9InZwY19ncmFkaWVudF90b3BfMV8iIGdyYWRpZW50VW5pdHM9InVzZXJTcGFjZU9uVXNlIiB4MT0iMC42MzQ3IiB5MT0iMzEuODY1MyIgeDI9IjMxLjcyODIiIHkyPSIwLjc3MTgiPiYjeGE7CTxzdG9wIG9mZnNldD0iMC4xIiBzdHlsZT0ic3RvcC1jb2xvcjojODgzRkZBIi8+JiN4YTsJPHN0b3Agb2Zmc2V0PSIwLjkiIHN0eWxlPSJzdG9wLWNvbG9yOiNFQzUzODgiLz4mI3hhOzwvbGluZWFyR3JhZGllbnQ+JiN4YTs8cGF0aCBpZD0idnBjX2dyYWRpZW50X3RvcCIgY2xhc3M9InN0MSIgZD0iTTI1LDIxaDJWN2MwLTEuMS0wLjktMi0yLTJIMTJ2MmgxM1YyMXoiLz4mI3hhOzxsaW5lYXJHcmFkaWVudCBpZD0iZW5kcG9pbnRfZ3JhZGllbnRfcmlnaHRfMV8iIGdyYWRpZW50VW5pdHM9InVzZXJTcGFjZU9uVXNlIiB4MT0iLTQ2NyIgeTE9Ii0zMDciIHgyPSItNDYxIiB5Mj0iLTMwNyIgZ3JhZGllbnRUcmFuc2Zvcm09Im1hdHJpeCg0LjQ4OTcwMGUtMTEgLTEgLTEgLTQuNDg5NzAwZS0xMSAtMjgxIC00NDYpIj4mI3hhOwk8c3RvcCBvZmZzZXQ9IjAuMTAyNiIgc3R5bGU9InN0b3AtY29sb3I6I0ZGRkZGRiIvPiYjeGE7CTxzdG9wIG9mZnNldD0iMSIgc3R5bGU9InN0b3AtY29sb3I6I0ZGRkZGRjtzdG9wLW9wYWNpdHk6MCIvPiYjeGE7PC9saW5lYXJHcmFkaWVudD4mI3hhOzxwb2x5Z29uIGlkPSJlbmRwb2ludF9ncmFkaWVudF9yaWdodCIgY2xhc3M9InN0MiIgcG9pbnRzPSIyOCwxNSAyOCwyMSAyNCwyMSAyNCwxNSAiLz4mI3hhOzxsaW5lYXJHcmFkaWVudCBpZD0iZW5kcG9pbnRfZ3JhZGllbnRfbGVmdF8xXyIgZ3JhZGllbnRVbml0cz0idXNlclNwYWNlT25Vc2UiIHgxPSItMzM5IiB5MT0iNTA0IiB4Mj0iLTMzMyIgeTI9IjUwNCIgZ3JhZGllbnRUcmFuc2Zvcm09Im1hdHJpeCgtNC40ODk3MDBlLTExIDEgMSA0LjQ4OTcwMGUtMTEgLTQ5OCAzNTApIj4mI3hhOwk8c3RvcCBvZmZzZXQ9IjAuMTAyNiIgc3R5bGU9InN0b3AtY29sb3I6I0ZGRkZGRiIvPiYjeGE7CTxzdG9wIG9mZnNldD0iMC45OTk2IiBzdHlsZT0ic3RvcC1jb2xvcjojRkZGRkZGO3N0b3Atb3BhY2l0eTowIi8+JiN4YTs8L2xpbmVhckdyYWRpZW50PiYjeGE7PHBvbHlnb24gaWQ9ImVuZHBvaW50X2dyYWRpZW50X2xlZnQiIGNsYXNzPSJzdDMiIHBvaW50cz0iNCwxNyA0LDExIDgsMTEgOCwxNyAiLz4mI3hhOzxwYXRoIGlkPSJlbmRwb2ludHMiIGNsYXNzPSJzdDQiIGQ9Ik0yOCwyMmgtNGgtMC42bC00LTRjMC40LTAuNiwwLjYtMS4zLDAuNi0yYzAtMi4yLTEuOC00LTQtNGMtMC43LDAtMS40LDAuMi0yLDAuNmwtNC00VjhWNFYySDgmIzEwOyYjOTtINEgydjJ2NHYyaDJoNGgwLjZsNCw0Yy0wLjQsMC42LTAuNiwxLjMtMC42LDJjMCwyLjIsMS44LDQsNCw0YzAuNywwLDEuNC0wLjIsMi0wLjZsNCw0VjI0djR2MmgyaDRoMnYtMnYtNHYtMkgyOHogTTgsOEg0VjRoNFY4eiYjMTA7JiM5OyBNMTYsMThjLTEuMSwwLTItMC45LTItMnMwLjktMiwyLTJzMiwwLjksMiwyUzE3LjEsMTgsMTYsMTh6IE0yOCwyOGgtNHYtNGg0VjI4eiIvPiYjeGE7PC9zdmc+" parent="nxBYaGgMGpCkZTyIQCUJ-18" vertex="1">
                    <mxGeometry x="46" y="252" width="60" height="60" as="geometry"/>
                </mxCell>
                <mxCell id="nxBYaGgMGpCkZTyIQCUJ-20" value="Zone 2" style="shape=mxgraph.ibm.box;prType=zone;fontStyle=0;verticalAlign=top;align=left;spacingLeft=32;spacingTop=4;rounded=0;whiteSpace=wrap;html=1;strokeWidth=1;dashed=0;container=1;spacing=-4;collapsible=0;expand=0;recursiveResize=0;" parent="nxBYaGgMGpCkZTyIQCUJ-18" vertex="1">
                    <mxGeometry x="38" y="102" width="75" height="60" as="geometry"/>
                </mxCell>
                <mxCell id="nxBYaGgMGpCkZTyIQCUJ-21" value="" style="aspect=fixed;perimeter=ellipsePerimeter;html=1;align=center;shadow=0;dashed=0;fontColor=#4277BB;labelBackgroundColor=#ffffff;fontSize=12;spacingTop=3;image;image=img/lib/ibm/vpc/Instance.svg;" parent="nxBYaGgMGpCkZTyIQCUJ-20" vertex="1">
                    <mxGeometry x="20" y="20" width="40" height="40" as="geometry"/>
                </mxCell>
                <mxCell id="nxBYaGgMGpCkZTyIQCUJ-22" value="Zone 1" style="shape=mxgraph.ibm.box;prType=zone;fontStyle=0;verticalAlign=top;align=left;spacingLeft=32;spacingTop=4;rounded=0;whiteSpace=wrap;html=1;strokeWidth=1;dashed=0;container=1;spacing=-4;collapsible=0;expand=0;recursiveResize=0;" parent="nxBYaGgMGpCkZTyIQCUJ-18" vertex="1">
                    <mxGeometry x="38" y="32" width="75" height="60" as="geometry"/>
                </mxCell>
                <mxCell id="nxBYaGgMGpCkZTyIQCUJ-23" value="" style="aspect=fixed;perimeter=ellipsePerimeter;html=1;align=center;shadow=0;dashed=0;fontColor=#4277BB;labelBackgroundColor=#ffffff;fontSize=12;spacingTop=3;image;image=img/lib/ibm/vpc/Instance.svg;" parent="nxBYaGgMGpCkZTyIQCUJ-22" vertex="1">
                    <mxGeometry x="20" y="20" width="40" height="40" as="geometry"/>
                </mxCell>
                <mxCell id="nxBYaGgMGpCkZTyIQCUJ-24" value="Zone 3" style="shape=mxgraph.ibm.box;prType=zone;fontStyle=0;verticalAlign=top;align=left;spacingLeft=32;spacingTop=4;rounded=0;whiteSpace=wrap;html=1;strokeWidth=1;dashed=0;container=1;spacing=-4;collapsible=0;expand=0;recursiveResize=0;" parent="nxBYaGgMGpCkZTyIQCUJ-18" vertex="1">
                    <mxGeometry x="38" y="172" width="75" height="60" as="geometry"/>
                </mxCell>
                <mxCell id="nxBYaGgMGpCkZTyIQCUJ-25" value="" style="aspect=fixed;perimeter=ellipsePerimeter;html=1;align=center;shadow=0;dashed=0;fontColor=#4277BB;labelBackgroundColor=#ffffff;fontSize=12;spacingTop=3;image;image=img/lib/ibm/vpc/Instance.svg;" parent="nxBYaGgMGpCkZTyIQCUJ-24" vertex="1">
                    <mxGeometry x="20" y="20" width="40" height="40" as="geometry"/>
                </mxCell>
                <mxCell id="nxBYaGgMGpCkZTyIQCUJ-26" value="IBM private endpoint" style="text;html=1;strokeColor=none;fillColor=none;align=center;verticalAlign=middle;whiteSpace=wrap;rounded=0;" parent="nxBYaGgMGpCkZTyIQCUJ-18" vertex="1">
                    <mxGeometry x="20" y="237" width="120" height="20" as="geometry"/>
                </mxCell>
                <mxCell id="nxBYaGgMGpCkZTyIQCUJ-32" value="" style="aspect=fixed;perimeter=ellipsePerimeter;html=1;align=center;shadow=0;dashed=0;fontColor=#4277BB;labelBackgroundColor=#ffffff;fontSize=12;spacingTop=3;image;image=img/lib/ibm/users/browser.svg;" parent="eCtX5nm03-OrFFX8MalM-1" vertex="1">
                    <mxGeometry x="-1080" y="170" width="80" height="80" as="geometry"/>
                </mxCell>
                <mxCell id="nxBYaGgMGpCkZTyIQCUJ-34" value="" style="aspect=fixed;perimeter=ellipsePerimeter;html=1;align=center;shadow=0;dashed=0;fontColor=#4277BB;labelBackgroundColor=#ffffff;fontSize=12;spacingTop=3;image;image=img/lib/ibm/vpc/Internet.svg;" parent="eCtX5nm03-OrFFX8MalM-1" vertex="1">
                    <mxGeometry x="-890" y="178" width="64" height="64" as="geometry"/>
                </mxCell>
                <mxCell id="nxBYaGgMGpCkZTyIQCUJ-35" value="Resources in same VPC" style="text;html=1;strokeColor=none;fillColor=none;align=center;verticalAlign=middle;whiteSpace=wrap;rounded=0;" parent="eCtX5nm03-OrFFX8MalM-1" vertex="1">
                    <mxGeometry x="-442.5" y="360" width="85" height="20" as="geometry"/>
                </mxCell>
                <mxCell id="nxBYaGgMGpCkZTyIQCUJ-40" value="" style="endArrow=classic;html=1;exitX=1;exitY=0.5;exitDx=0;exitDy=0;entryX=0;entryY=0.5;entryDx=0;entryDy=0;strokeColor=#0000FF;" parent="eCtX5nm03-OrFFX8MalM-1" source="nxBYaGgMGpCkZTyIQCUJ-32" target="nxBYaGgMGpCkZTyIQCUJ-34" edge="1">
                    <mxGeometry width="50" height="50" relative="1" as="geometry">
                        <mxPoint x="-970" y="330" as="sourcePoint"/>
                        <mxPoint x="-920" y="280" as="targetPoint"/>
                    </mxGeometry>
                </mxCell>
                <mxCell id="nxBYaGgMGpCkZTyIQCUJ-41" value="" style="endArrow=classic;html=1;exitX=0.5;exitY=0;exitDx=0;exitDy=0;entryX=0;entryY=0.544;entryDx=0;entryDy=0;entryPerimeter=0;strokeColor=#0000FF;" parent="eCtX5nm03-OrFFX8MalM-1" source="nxBYaGgMGpCkZTyIQCUJ-34" target="nxBYaGgMGpCkZTyIQCUJ-3" edge="1">
                    <mxGeometry width="50" height="50" relative="1" as="geometry">
                        <mxPoint x="-880" y="340" as="sourcePoint"/>
                        <mxPoint x="-830" y="290" as="targetPoint"/>
                        <Array as="points">
                            <mxPoint x="-858" y="149"/>
                        </Array>
                    </mxGeometry>
                </mxCell>
                <mxCell id="nxBYaGgMGpCkZTyIQCUJ-42" value="" style="endArrow=classic;html=1;entryX=0.007;entryY=0.49;entryDx=0;entryDy=0;entryPerimeter=0;exitX=0.5;exitY=1;exitDx=0;exitDy=0;strokeColor=#0000FF;" parent="eCtX5nm03-OrFFX8MalM-1" source="nxBYaGgMGpCkZTyIQCUJ-34" target="nxBYaGgMGpCkZTyIQCUJ-6" edge="1">
                    <mxGeometry width="50" height="50" relative="1" as="geometry">
                        <mxPoint x="-830" y="220" as="sourcePoint"/>
                        <mxPoint x="-950" y="360" as="targetPoint"/>
                        <Array as="points">
                            <mxPoint x="-858" y="279"/>
                        </Array>
                    </mxGeometry>
                </mxCell>
                <mxCell id="nxBYaGgMGpCkZTyIQCUJ-43" value="" style="endArrow=classic;startArrow=none;html=1;exitX=0.99;exitY=0.546;exitDx=0;exitDy=0;exitPerimeter=0;entryX=-0.002;entryY=0.541;entryDx=0;entryDy=0;entryPerimeter=0;startFill=0;strokeColor=#0000FF;" parent="eCtX5nm03-OrFFX8MalM-1" source="nxBYaGgMGpCkZTyIQCUJ-3" target="nxBYaGgMGpCkZTyIQCUJ-22" edge="1">
                    <mxGeometry width="50" height="50" relative="1" as="geometry">
                        <mxPoint x="-550" y="160" as="sourcePoint"/>
                        <mxPoint x="-500" y="110" as="targetPoint"/>
                        <Array as="points">
                            <mxPoint x="-560" y="149"/>
                            <mxPoint x="-560" y="104"/>
                        </Array>
                    </mxGeometry>
                </mxCell>
                <mxCell id="nxBYaGgMGpCkZTyIQCUJ-44" value="" style="endArrow=classic;startArrow=none;html=1;exitX=1;exitY=0.559;exitDx=0;exitDy=0;exitPerimeter=0;entryX=0.014;entryY=0.531;entryDx=0;entryDy=0;entryPerimeter=0;startFill=0;strokeColor=#0000FF;" parent="eCtX5nm03-OrFFX8MalM-1" source="nxBYaGgMGpCkZTyIQCUJ-3" target="nxBYaGgMGpCkZTyIQCUJ-20" edge="1">
                    <mxGeometry width="50" height="50" relative="1" as="geometry">
                        <mxPoint x="-550" y="210" as="sourcePoint"/>
                        <mxPoint x="-500" y="160" as="targetPoint"/>
                        <Array as="points">
                            <mxPoint x="-560" y="150"/>
                            <mxPoint x="-560" y="174"/>
                        </Array>
                    </mxGeometry>
                </mxCell>
                <mxCell id="nxBYaGgMGpCkZTyIQCUJ-45" value="" style="endArrow=classic;startArrow=none;html=1;exitX=1.009;exitY=0.546;exitDx=0;exitDy=0;exitPerimeter=0;startFill=0;strokeColor=#0000FF;" parent="eCtX5nm03-OrFFX8MalM-1" source="nxBYaGgMGpCkZTyIQCUJ-3" edge="1">
                    <mxGeometry width="50" height="50" relative="1" as="geometry">
                        <mxPoint x="-540" y="270" as="sourcePoint"/>
                        <mxPoint x="-440" y="240" as="targetPoint"/>
                        <Array as="points">
                            <mxPoint x="-560" y="149"/>
                            <mxPoint x="-560" y="240"/>
                        </Array>
                    </mxGeometry>
                </mxCell>
                <mxCell id="nxBYaGgMGpCkZTyIQCUJ-46" value="" style="endArrow=classic;startArrow=none;html=1;startFill=0;entryX=0;entryY=0.25;entryDx=0;entryDy=0;strokeColor=#0000FF;" parent="eCtX5nm03-OrFFX8MalM-1" target="nxBYaGgMGpCkZTyIQCUJ-19" edge="1">
                    <mxGeometry width="50" height="50" relative="1" as="geometry">
                        <mxPoint x="-615" y="149" as="sourcePoint"/>
                        <mxPoint x="-431" y="320" as="targetPoint"/>
                        <Array as="points">
                            <mxPoint x="-560" y="149"/>
                            <mxPoint x="-560" y="307"/>
                        </Array>
                    </mxGeometry>
                </mxCell>
                <mxCell id="nxBYaGgMGpCkZTyIQCUJ-52" value="" style="endArrow=classic;html=1;entryX=0.013;entryY=0.822;entryDx=0;entryDy=0;entryPerimeter=0;exitX=1.001;exitY=0.49;exitDx=0;exitDy=0;exitPerimeter=0;strokeColor=#0000FF;" parent="eCtX5nm03-OrFFX8MalM-1" source="nxBYaGgMGpCkZTyIQCUJ-6" target="nxBYaGgMGpCkZTyIQCUJ-22" edge="1">
                    <mxGeometry width="50" height="50" relative="1" as="geometry">
                        <mxPoint x="-614" y="279" as="sourcePoint"/>
                        <mxPoint x="-450" y="116" as="targetPoint"/>
                        <Array as="points">
                            <mxPoint x="-530" y="279"/>
                            <mxPoint x="-530" y="121"/>
                        </Array>
                    </mxGeometry>
                </mxCell>
                <mxCell id="nxBYaGgMGpCkZTyIQCUJ-53" value="" style="endArrow=classic;html=1;exitX=1.001;exitY=0.491;exitDx=0;exitDy=0;exitPerimeter=0;strokeColor=#0000FF;" parent="eCtX5nm03-OrFFX8MalM-1" source="nxBYaGgMGpCkZTyIQCUJ-6" edge="1">
                    <mxGeometry width="50" height="50" relative="1" as="geometry">
                        <mxPoint x="-616" y="277" as="sourcePoint"/>
                        <mxPoint x="-442" y="190" as="targetPoint"/>
                        <Array as="points">
                            <mxPoint x="-530" y="277"/>
                            <mxPoint x="-530" y="190"/>
                        </Array>
                    </mxGeometry>
                </mxCell>
                <mxCell id="nxBYaGgMGpCkZTyIQCUJ-54" value="" style="endArrow=classic;html=1;exitX=1.001;exitY=0.496;exitDx=0;exitDy=0;exitPerimeter=0;entryX=-0.009;entryY=0.822;entryDx=0;entryDy=0;entryPerimeter=0;strokeColor=#0000FF;" parent="eCtX5nm03-OrFFX8MalM-1" source="nxBYaGgMGpCkZTyIQCUJ-6" target="nxBYaGgMGpCkZTyIQCUJ-24" edge="1">
                    <mxGeometry width="50" height="50" relative="1" as="geometry">
                        <mxPoint x="-610" y="280" as="sourcePoint"/>
                        <mxPoint x="-500" y="330" as="targetPoint"/>
                        <Array as="points">
                            <mxPoint x="-530" y="280"/>
                            <mxPoint x="-530" y="261"/>
                        </Array>
                    </mxGeometry>
                </mxCell>
                <mxCell id="nxBYaGgMGpCkZTyIQCUJ-55" value="" style="endArrow=classic;html=1;exitX=0.999;exitY=0.494;exitDx=0;exitDy=0;exitPerimeter=0;entryX=0;entryY=0.75;entryDx=0;entryDy=0;strokeColor=#0000FF;" parent="eCtX5nm03-OrFFX8MalM-1" source="nxBYaGgMGpCkZTyIQCUJ-6" target="nxBYaGgMGpCkZTyIQCUJ-19" edge="1">
                    <mxGeometry width="50" height="50" relative="1" as="geometry">
                        <mxPoint x="-610" y="280" as="sourcePoint"/>
                        <mxPoint x="-550" y="310" as="targetPoint"/>
                        <Array as="points">
                            <mxPoint x="-530" y="279"/>
                            <mxPoint x="-530" y="337"/>
                        </Array>
                    </mxGeometry>
                </mxCell>
                <mxCell id="nxBYaGgMGpCkZTyIQCUJ-62" value="User" style="text;html=1;strokeColor=none;fillColor=none;align=center;verticalAlign=middle;whiteSpace=wrap;rounded=0;" parent="eCtX5nm03-OrFFX8MalM-1" vertex="1">
                    <mxGeometry x="-1064" y="261" width="37" height="20" as="geometry"/>
                </mxCell>
            </root>
        </mxGraphModel>
    </diagram>
    <diagram id="D7Yy-HYjdMCPqIj0df4W" name="Access the internet">
        <mxGraphModel dx="1945" dy="481" grid="0" gridSize="10" guides="1" tooltips="1" connect="1" arrows="1" fold="1" page="0" pageScale="1" pageWidth="850" pageHeight="1100" math="0" shadow="0">
            <root>
                <mxCell id="gPglmQgVoQf86N4Xov98-0"/>
                <mxCell id="gPglmQgVoQf86N4Xov98-1" parent="gPglmQgVoQf86N4Xov98-0"/>
                <mxCell id="gPglmQgVoQf86N4Xov98-2" value="Region 1" style="shape=mxgraph.ibm.box;prType=region;fontStyle=0;verticalAlign=top;align=left;spacingLeft=32;spacingTop=4;rounded=0;whiteSpace=wrap;html=1;strokeWidth=2;dashed=0;container=1;spacing=-4;collapsible=0;expand=0;recursiveResize=0;fillColor=#dae8fc;strokeColor=#6c8ebf;" parent="gPglmQgVoQf86N4Xov98-1" vertex="1">
                    <mxGeometry x="-826" y="40" width="216" height="355" as="geometry"/>
                </mxCell>
                <mxCell id="gPglmQgVoQf86N4Xov98-3" value="" style="rounded=0;whiteSpace=wrap;html=1;" parent="gPglmQgVoQf86N4Xov98-2" vertex="1">
                    <mxGeometry x="20" y="52" width="160" height="248" as="geometry"/>
                </mxCell>
                <mxCell id="gPglmQgVoQf86N4Xov98-4" value="Zone 1" style="shape=mxgraph.ibm.box;prType=zone;fontStyle=0;verticalAlign=top;align=left;spacingLeft=32;spacingTop=4;rounded=0;whiteSpace=wrap;html=1;strokeWidth=1;dashed=0;container=1;spacing=-4;collapsible=0;expand=0;recursiveResize=0;" parent="gPglmQgVoQf86N4Xov98-2" vertex="1">
                    <mxGeometry x="35" y="60" width="130" height="90" as="geometry"/>
                </mxCell>
                <mxCell id="gPglmQgVoQf86N4Xov98-5" value="" style="shape=image;aspect=fixed;image=data:image/svg+xml,PD94bWwgdmVyc2lvbj0iMS4wIiBlbmNvZGluZz0idXRmLTgiPz48c3ZnIHZlcnNpb249IjEuMSIgaWQ9IlBhZGRpbmciIHhtbG5zPSJodHRwOi8vd3d3LnczLm9yZy8yMDAwL3N2ZyIgeG1sbnM6eGxpbms9Imh0dHA6Ly93d3cudzMub3JnLzE5OTkveGxpbmsiIHg9IjBweCIgeT0iMHB4IiB2aWV3Qm94PSIwIDAgMzIgMzIiIHN0eWxlPSJlbmFibGUtYmFja2dyb3VuZDpuZXcgMCAwIDMyIDMyOyIgeG1sOnNwYWNlPSJwcmVzZXJ2ZSI+PGRlZnM+PGxpbmVhckdyYWRpZW50IGlkPSJhIiB4MT0iMTEuNTQiIHkxPSIyOS42MyIgeDI9IjExLjU0IiB5Mj0iMi4zNyIgZ3JhZGllbnRVbml0cz0idXNlclNwYWNlT25Vc2UiPjxzdG9wIG9mZnNldD0iMCIgc3RvcC1jb2xvcj0iI2ZmZiIgc3RvcC1vcGFjaXR5PSIwIi8+PHN0b3Agb2Zmc2V0PSIwLjQ2IiBzdG9wLWNvbG9yPSIjZmZmIi8+PC9saW5lYXJHcmFkaWVudD48bWFzayBpZD0iYiIgeD0iMCIgeT0iMCIgd2lkdGg9IjMyIiBoZWlnaHQ9IjMyIiBtYXNrVW5pdHM9InVzZXJTcGFjZU9uVXNlIj48cGF0aCBkPSJNMTMuNywyOS42M0ExOC43NywxOC43NywwLDAsMSw4LDE2LDE4Ljc3LDE4Ljc3LDAsMCwxLDEzLjcsMi4zN2wxLjM3LDEuNDZBMTYuNzQsMTYuNzQsMCwwLDAsMTAsMTZhMTYuNzQsMTYuNzQsMCwwLDAsNS4wNywxMi4xN1oiIGZpbGw9InVybCgjYSkiLz48cGF0aCBkPSJNMTYsMmExNCwxNCwwLDAsMCwwLDI4aDFWMlpNMTUsNFYxNUg0LjA1QTEyLDEyLDAsMCwxLDE1LDRaTTQuMDUsMTdIMTVWMjhBMTIsMTIsMCwwLDEsNC4wNSwxN1oiIGZpbGw9IiNmZmYiLz48L21hc2s+PGxpbmVhckdyYWRpZW50IGlkPSJjIiB5MT0iMzIiIHgyPSIzMiIgZ3JhZGllbnRVbml0cz0idXNlclNwYWNlT25Vc2UiPjxzdG9wIG9mZnNldD0iMC4xIiBzdG9wLWNvbG9yPSIjZWU1Mzk2Ii8+PHN0b3Agb2Zmc2V0PSIwLjkiIHN0b3AtY29sb3I9IiM4YTNmZmMiLz48L2xpbmVhckdyYWRpZW50PjwvZGVmcz48ZyBtYXNrPSJ1cmwoI2IpIj48cmVjdCB3aWR0aD0iMzIiIGhlaWdodD0iMzIiIGZpbGw9InVybCgjYykiLz48L2c+PHBhdGggZD0iTTI5LDIzSDI4VjIxYTMsMywwLDAsMC02LDB2MkgyMWExLDEsMCwwLDAtMSwxdjVhMSwxLDAsMCwwLDEsMWg4YTEsMSwwLDAsMCwxLTFWMjRBMSwxLDAsMCwwLDI5LDIzWm0tNS0yYTEsMSwwLDAsMSwyLDB2MkgyNFptNCw3SDIyVjI1aDZaIiBmaWxsPSIjMDAxZDZjIi8+PGNpcmNsZSBjeD0iMjUiIGN5PSIxNSIgcj0iMSIgZmlsbD0iIzAwMWQ2YyIvPjxjaXJjbGUgY3g9IjI1IiBjeT0iMTEiIHI9IjEiIGZpbGw9IiMwMDFkNmMiLz48cGF0aCBkPSJNMjUsOGEzLDMsMCwxLDAtMy0zQTMsMywwLDAsMCwyNSw4Wm0wLTRhMSwxLDAsMSwxLTEsMUExLDEsMCwwLDEsMjUsNFoiIGZpbGw9IiMwMDFkNmMiLz48L3N2Zz4=;" parent="gPglmQgVoQf86N4Xov98-4" vertex="1">
                    <mxGeometry x="40" y="20" width="50" height="50" as="geometry"/>
                </mxCell>
                <mxCell id="gPglmQgVoQf86N4Xov98-6" value="VPN member 1" style="text;html=1;strokeColor=none;fillColor=none;align=center;verticalAlign=middle;whiteSpace=wrap;rounded=0;" parent="gPglmQgVoQf86N4Xov98-4" vertex="1">
                    <mxGeometry x="2" y="68" width="130" height="20" as="geometry"/>
                </mxCell>
                <mxCell id="gPglmQgVoQf86N4Xov98-44" value="Floating IP" style="text;html=1;strokeColor=none;fillColor=none;align=center;verticalAlign=middle;whiteSpace=wrap;rounded=0;" parent="gPglmQgVoQf86N4Xov98-4" vertex="1">
                    <mxGeometry x="74" y="26" width="85" height="20" as="geometry"/>
                </mxCell>
                <mxCell id="gPglmQgVoQf86N4Xov98-10" value="VPN server service" style="text;html=1;strokeColor=none;fillColor=none;align=center;verticalAlign=middle;whiteSpace=wrap;rounded=0;" parent="gPglmQgVoQf86N4Xov98-2" vertex="1">
                    <mxGeometry x="57.5" y="325" width="85" height="20" as="geometry"/>
                </mxCell>
                <mxCell id="gPglmQgVoQf86N4Xov98-11" value="&lt;font style=&quot;font-size: 7px&quot;&gt;VPN server:&lt;br&gt;8647a2e7cb79.us-south1.vpn-server.appdomain.cloud&lt;/font&gt;" style="text;html=1;strokeColor=none;fillColor=none;align=center;verticalAlign=middle;whiteSpace=wrap;rounded=0;" parent="gPglmQgVoQf86N4Xov98-2" vertex="1">
                    <mxGeometry x="18" y="162" width="180" height="20" as="geometry"/>
                </mxCell>
                <mxCell id="gPglmQgVoQf86N4Xov98-7" value="Zone 2" style="shape=mxgraph.ibm.box;prType=zone;fontStyle=0;verticalAlign=top;align=left;spacingLeft=32;spacingTop=4;rounded=0;whiteSpace=wrap;html=1;strokeWidth=1;dashed=0;container=1;spacing=-4;collapsible=0;expand=0;recursiveResize=0;" parent="gPglmQgVoQf86N4Xov98-2" vertex="1">
                    <mxGeometry x="30" y="190" width="135" height="100" as="geometry"/>
                </mxCell>
                <mxCell id="gPglmQgVoQf86N4Xov98-8" value="" style="shape=image;aspect=fixed;image=data:image/svg+xml,PD94bWwgdmVyc2lvbj0iMS4wIiBlbmNvZGluZz0idXRmLTgiPz48c3ZnIHZlcnNpb249IjEuMSIgaWQ9IlBhZGRpbmciIHhtbG5zPSJodHRwOi8vd3d3LnczLm9yZy8yMDAwL3N2ZyIgeG1sbnM6eGxpbms9Imh0dHA6Ly93d3cudzMub3JnLzE5OTkveGxpbmsiIHg9IjBweCIgeT0iMHB4IiB2aWV3Qm94PSIwIDAgMzIgMzIiIHN0eWxlPSJlbmFibGUtYmFja2dyb3VuZDpuZXcgMCAwIDMyIDMyOyIgeG1sOnNwYWNlPSJwcmVzZXJ2ZSI+PGRlZnM+PGxpbmVhckdyYWRpZW50IGlkPSJhIiB4MT0iMTEuNTQiIHkxPSIyOS42MyIgeDI9IjExLjU0IiB5Mj0iMi4zNyIgZ3JhZGllbnRVbml0cz0idXNlclNwYWNlT25Vc2UiPjxzdG9wIG9mZnNldD0iMCIgc3RvcC1jb2xvcj0iI2ZmZiIgc3RvcC1vcGFjaXR5PSIwIi8+PHN0b3Agb2Zmc2V0PSIwLjQ2IiBzdG9wLWNvbG9yPSIjZmZmIi8+PC9saW5lYXJHcmFkaWVudD48bWFzayBpZD0iYiIgeD0iMCIgeT0iMCIgd2lkdGg9IjMyIiBoZWlnaHQ9IjMyIiBtYXNrVW5pdHM9InVzZXJTcGFjZU9uVXNlIj48cGF0aCBkPSJNMTMuNywyOS42M0ExOC43NywxOC43NywwLDAsMSw4LDE2LDE4Ljc3LDE4Ljc3LDAsMCwxLDEzLjcsMi4zN2wxLjM3LDEuNDZBMTYuNzQsMTYuNzQsMCwwLDAsMTAsMTZhMTYuNzQsMTYuNzQsMCwwLDAsNS4wNywxMi4xN1oiIGZpbGw9InVybCgjYSkiLz48cGF0aCBkPSJNMTYsMmExNCwxNCwwLDAsMCwwLDI4aDFWMlpNMTUsNFYxNUg0LjA1QTEyLDEyLDAsMCwxLDE1LDRaTTQuMDUsMTdIMTVWMjhBMTIsMTIsMCwwLDEsNC4wNSwxN1oiIGZpbGw9IiNmZmYiLz48L21hc2s+PGxpbmVhckdyYWRpZW50IGlkPSJjIiB5MT0iMzIiIHgyPSIzMiIgZ3JhZGllbnRVbml0cz0idXNlclNwYWNlT25Vc2UiPjxzdG9wIG9mZnNldD0iMC4xIiBzdG9wLWNvbG9yPSIjZWU1Mzk2Ii8+PHN0b3Agb2Zmc2V0PSIwLjkiIHN0b3AtY29sb3I9IiM4YTNmZmMiLz48L2xpbmVhckdyYWRpZW50PjwvZGVmcz48ZyBtYXNrPSJ1cmwoI2IpIj48cmVjdCB3aWR0aD0iMzIiIGhlaWdodD0iMzIiIGZpbGw9InVybCgjYykiLz48L2c+PHBhdGggZD0iTTI5LDIzSDI4VjIxYTMsMywwLDAsMC02LDB2MkgyMWExLDEsMCwwLDAtMSwxdjVhMSwxLDAsMCwwLDEsMWg4YTEsMSwwLDAsMCwxLTFWMjRBMSwxLDAsMCwwLDI5LDIzWm0tNS0yYTEsMSwwLDAsMSwyLDB2MkgyNFptNCw3SDIyVjI1aDZaIiBmaWxsPSIjMDAxZDZjIi8+PGNpcmNsZSBjeD0iMjUiIGN5PSIxNSIgcj0iMSIgZmlsbD0iIzAwMWQ2YyIvPjxjaXJjbGUgY3g9IjI1IiBjeT0iMTEiIHI9IjEiIGZpbGw9IiMwMDFkNmMiLz48cGF0aCBkPSJNMjUsOGEzLDMsMCwxLDAtMy0zQTMsMywwLDAsMCwyNSw4Wm0wLTRhMSwxLDAsMSwxLTEsMUExLDEsMCwwLDEsMjUsNFoiIGZpbGw9IiMwMDFkNmMiLz48L3N2Zz4=;" parent="gPglmQgVoQf86N4Xov98-7" vertex="1">
                    <mxGeometry x="42" y="20" width="50" height="50" as="geometry"/>
                </mxCell>
                <mxCell id="gPglmQgVoQf86N4Xov98-9" value="VPN member 2" style="text;html=1;strokeColor=none;fillColor=none;align=center;verticalAlign=middle;whiteSpace=wrap;rounded=0;" parent="gPglmQgVoQf86N4Xov98-7" vertex="1">
                    <mxGeometry x="7" y="80" width="130" height="20" as="geometry"/>
                </mxCell>
                <mxCell id="gPglmQgVoQf86N4Xov98-45" value="Floating IP" style="text;html=1;strokeColor=none;fillColor=none;align=center;verticalAlign=middle;whiteSpace=wrap;rounded=0;" parent="gPglmQgVoQf86N4Xov98-7" vertex="1">
                    <mxGeometry x="81" y="45" width="85" height="20" as="geometry"/>
                </mxCell>
                <mxCell id="gPglmQgVoQf86N4Xov98-21" value="" style="aspect=fixed;perimeter=ellipsePerimeter;html=1;align=center;shadow=0;dashed=0;fontColor=#4277BB;labelBackgroundColor=#ffffff;fontSize=12;spacingTop=3;image;image=img/lib/ibm/users/browser.svg;" parent="gPglmQgVoQf86N4Xov98-1" vertex="1">
                    <mxGeometry x="-1080" y="170" width="80" height="80" as="geometry"/>
                </mxCell>
                <mxCell id="gPglmQgVoQf86N4Xov98-22" value="" style="aspect=fixed;perimeter=ellipsePerimeter;html=1;align=center;shadow=0;dashed=0;fontColor=#4277BB;labelBackgroundColor=#ffffff;fontSize=12;spacingTop=3;image;image=img/lib/ibm/vpc/Internet.svg;" parent="gPglmQgVoQf86N4Xov98-1" vertex="1">
                    <mxGeometry x="-890" y="178" width="64" height="64" as="geometry"/>
                </mxCell>
                <mxCell id="gPglmQgVoQf86N4Xov98-24" value="" style="endArrow=classic;html=1;exitX=1;exitY=0.5;exitDx=0;exitDy=0;entryX=0;entryY=0.5;entryDx=0;entryDy=0;strokeColor=#0000FF;" parent="gPglmQgVoQf86N4Xov98-1" source="gPglmQgVoQf86N4Xov98-21" target="gPglmQgVoQf86N4Xov98-22" edge="1">
                    <mxGeometry width="50" height="50" relative="1" as="geometry">
                        <mxPoint x="-970" y="330" as="sourcePoint"/>
                        <mxPoint x="-920" y="280" as="targetPoint"/>
                    </mxGeometry>
                </mxCell>
                <mxCell id="gPglmQgVoQf86N4Xov98-25" value="" style="endArrow=classic;html=1;exitX=0.5;exitY=0;exitDx=0;exitDy=0;entryX=0;entryY=0.544;entryDx=0;entryDy=0;entryPerimeter=0;strokeColor=#0000FF;" parent="gPglmQgVoQf86N4Xov98-1" source="gPglmQgVoQf86N4Xov98-22" target="gPglmQgVoQf86N4Xov98-4" edge="1">
                    <mxGeometry width="50" height="50" relative="1" as="geometry">
                        <mxPoint x="-880" y="340" as="sourcePoint"/>
                        <mxPoint x="-830" y="290" as="targetPoint"/>
                        <Array as="points">
                            <mxPoint x="-858" y="149"/>
                        </Array>
                    </mxGeometry>
                </mxCell>
                <mxCell id="gPglmQgVoQf86N4Xov98-26" value="" style="endArrow=classic;html=1;entryX=0.007;entryY=0.49;entryDx=0;entryDy=0;entryPerimeter=0;exitX=0.5;exitY=1;exitDx=0;exitDy=0;strokeColor=#0000FF;" parent="gPglmQgVoQf86N4Xov98-1" source="gPglmQgVoQf86N4Xov98-22" target="gPglmQgVoQf86N4Xov98-7" edge="1">
                    <mxGeometry width="50" height="50" relative="1" as="geometry">
                        <mxPoint x="-830" y="220" as="sourcePoint"/>
                        <mxPoint x="-950" y="360" as="targetPoint"/>
                        <Array as="points">
                            <mxPoint x="-858" y="279"/>
                        </Array>
                    </mxGeometry>
                </mxCell>
                <mxCell id="gPglmQgVoQf86N4Xov98-35" value="User" style="text;html=1;strokeColor=none;fillColor=none;align=center;verticalAlign=middle;whiteSpace=wrap;rounded=0;" parent="gPglmQgVoQf86N4Xov98-1" vertex="1">
                    <mxGeometry x="-1064" y="261" width="37" height="20" as="geometry"/>
                </mxCell>
                <mxCell id="gPglmQgVoQf86N4Xov98-40" value="" style="aspect=fixed;perimeter=ellipsePerimeter;html=1;align=center;shadow=0;dashed=0;fontColor=#4277BB;labelBackgroundColor=#ffffff;fontSize=12;spacingTop=3;image;image=img/lib/ibm/vpc/Internet.svg;" parent="gPglmQgVoQf86N4Xov98-1" vertex="1">
                    <mxGeometry x="-490" y="190" width="60" height="60" as="geometry"/>
                </mxCell>
                <mxCell id="gPglmQgVoQf86N4Xov98-42" value="" style="endArrow=classic;html=1;exitX=1;exitY=0.5;exitDx=0;exitDy=0;" parent="gPglmQgVoQf86N4Xov98-1" source="gPglmQgVoQf86N4Xov98-5" edge="1">
                    <mxGeometry width="50" height="50" relative="1" as="geometry">
                        <mxPoint x="-450" y="200" as="sourcePoint"/>
                        <mxPoint x="-490" y="220" as="targetPoint"/>
                    </mxGeometry>
                </mxCell>
                <mxCell id="gPglmQgVoQf86N4Xov98-43" value="" style="endArrow=classic;html=1;exitX=1;exitY=0.5;exitDx=0;exitDy=0;" parent="gPglmQgVoQf86N4Xov98-1" source="gPglmQgVoQf86N4Xov98-8" edge="1">
                    <mxGeometry width="50" height="50" relative="1" as="geometry">
                        <mxPoint x="-540" y="310" as="sourcePoint"/>
                        <mxPoint x="-490" y="220" as="targetPoint"/>
                    </mxGeometry>
                </mxCell>
                <mxCell id="gPglmQgVoQf86N4Xov98-46" value="Internet" style="text;html=1;strokeColor=none;fillColor=none;align=center;verticalAlign=middle;whiteSpace=wrap;rounded=0;" parent="gPglmQgVoQf86N4Xov98-1" vertex="1">
                    <mxGeometry x="-482" y="250" width="40" height="20" as="geometry"/>
                </mxCell>
            </root>
        </mxGraphModel>
    </diagram>
    <diagram id="jSCHCZBNYswh_3cxQgLU" name="transit gateway integration">
        <mxGraphModel dx="745" dy="481" grid="0" gridSize="10" guides="1" tooltips="1" connect="1" arrows="1" fold="1" page="0" pageScale="1" pageWidth="850" pageHeight="1100" math="0" shadow="0">
            <root>
                <mxCell id="gs0iaYvnfJ1r0RqCEptI-0"/>
                <mxCell id="gs0iaYvnfJ1r0RqCEptI-1" parent="gs0iaYvnfJ1r0RqCEptI-0"/>
                <mxCell id="gs0iaYvnfJ1r0RqCEptI-2" value="Region B VPC B" style="shape=mxgraph.ibm.box;prType=vpc;fontStyle=0;verticalAlign=top;align=left;spacingLeft=32;spacingTop=4;fillColor=none;rounded=0;whiteSpace=wrap;html=1;strokeColor=#4376BB;strokeWidth=2;dashed=0;container=1;spacing=-4;collapsible=0;expand=0;recursiveResize=0;" vertex="1" parent="gs0iaYvnfJ1r0RqCEptI-1">
                    <mxGeometry x="516" y="128" width="153" height="138" as="geometry"/>
                </mxCell>
                <mxCell id="plIV7lsY7fhfI8DSmhUh-0" value="&lt;font color=&quot;#000000&quot;&gt;Virtual Server Instance&lt;/font&gt;" style="aspect=fixed;perimeter=ellipsePerimeter;html=1;align=center;shadow=0;dashed=0;fontColor=#4277BB;labelBackgroundColor=#ffffff;fontSize=12;spacingTop=3;image;image=img/lib/ibm/vpc/Instance.svg;" vertex="1" parent="gs0iaYvnfJ1r0RqCEptI-2">
                    <mxGeometry x="46.5" y="35" width="60" height="60" as="geometry"/>
                </mxCell>
                <mxCell id="gs0iaYvnfJ1r0RqCEptI-4" value="Region A VPC A" style="shape=mxgraph.ibm.box;prType=vpc;fontStyle=0;verticalAlign=top;align=left;spacingLeft=32;spacingTop=4;fillColor=none;rounded=0;whiteSpace=wrap;html=1;strokeColor=#4376BB;strokeWidth=2;dashed=0;container=1;spacing=-4;collapsible=0;expand=0;recursiveResize=0;" vertex="1" parent="gs0iaYvnfJ1r0RqCEptI-1">
                    <mxGeometry x="233" y="131" width="153" height="138" as="geometry"/>
                </mxCell>
                <mxCell id="gs0iaYvnfJ1r0RqCEptI-5" value="" style="shape=image;aspect=fixed;image=data:image/svg+xml,PD94bWwgdmVyc2lvbj0iMS4wIiBlbmNvZGluZz0idXRmLTgiPz48c3ZnIHZlcnNpb249IjEuMSIgaWQ9IlBhZGRpbmciIHhtbG5zPSJodHRwOi8vd3d3LnczLm9yZy8yMDAwL3N2ZyIgeG1sbnM6eGxpbms9Imh0dHA6Ly93d3cudzMub3JnLzE5OTkveGxpbmsiIHg9IjBweCIgeT0iMHB4IiB2aWV3Qm94PSIwIDAgMzIgMzIiIHN0eWxlPSJlbmFibGUtYmFja2dyb3VuZDpuZXcgMCAwIDMyIDMyOyIgeG1sOnNwYWNlPSJwcmVzZXJ2ZSI+PGRlZnM+PGxpbmVhckdyYWRpZW50IGlkPSJhIiB4MT0iMTEuNTQiIHkxPSIyOS42MyIgeDI9IjExLjU0IiB5Mj0iMi4zNyIgZ3JhZGllbnRVbml0cz0idXNlclNwYWNlT25Vc2UiPjxzdG9wIG9mZnNldD0iMCIgc3RvcC1jb2xvcj0iI2ZmZiIgc3RvcC1vcGFjaXR5PSIwIi8+PHN0b3Agb2Zmc2V0PSIwLjQ2IiBzdG9wLWNvbG9yPSIjZmZmIi8+PC9saW5lYXJHcmFkaWVudD48bWFzayBpZD0iYiIgeD0iMCIgeT0iMCIgd2lkdGg9IjMyIiBoZWlnaHQ9IjMyIiBtYXNrVW5pdHM9InVzZXJTcGFjZU9uVXNlIj48cGF0aCBkPSJNMTMuNywyOS42M0ExOC43NywxOC43NywwLDAsMSw4LDE2LDE4Ljc3LDE4Ljc3LDAsMCwxLDEzLjcsMi4zN2wxLjM3LDEuNDZBMTYuNzQsMTYuNzQsMCwwLDAsMTAsMTZhMTYuNzQsMTYuNzQsMCwwLDAsNS4wNywxMi4xN1oiIGZpbGw9InVybCgjYSkiLz48cGF0aCBkPSJNMTYsMmExNCwxNCwwLDAsMCwwLDI4aDFWMlpNMTUsNFYxNUg0LjA1QTEyLDEyLDAsMCwxLDE1LDRaTTQuMDUsMTdIMTVWMjhBMTIsMTIsMCwwLDEsNC4wNSwxN1oiIGZpbGw9IiNmZmYiLz48L21hc2s+PGxpbmVhckdyYWRpZW50IGlkPSJjIiB5MT0iMzIiIHgyPSIzMiIgZ3JhZGllbnRVbml0cz0idXNlclNwYWNlT25Vc2UiPjxzdG9wIG9mZnNldD0iMC4xIiBzdG9wLWNvbG9yPSIjZWU1Mzk2Ii8+PHN0b3Agb2Zmc2V0PSIwLjkiIHN0b3AtY29sb3I9IiM4YTNmZmMiLz48L2xpbmVhckdyYWRpZW50PjwvZGVmcz48ZyBtYXNrPSJ1cmwoI2IpIj48cmVjdCB3aWR0aD0iMzIiIGhlaWdodD0iMzIiIGZpbGw9InVybCgjYykiLz48L2c+PHBhdGggZD0iTTI5LDIzSDI4VjIxYTMsMywwLDAsMC02LDB2MkgyMWExLDEsMCwwLDAtMSwxdjVhMSwxLDAsMCwwLDEsMWg4YTEsMSwwLDAsMCwxLTFWMjRBMSwxLDAsMCwwLDI5LDIzWm0tNS0yYTEsMSwwLDAsMSwyLDB2MkgyNFptNCw3SDIyVjI1aDZaIiBmaWxsPSIjMDAxZDZjIi8+PGNpcmNsZSBjeD0iMjUiIGN5PSIxNSIgcj0iMSIgZmlsbD0iIzAwMWQ2YyIvPjxjaXJjbGUgY3g9IjI1IiBjeT0iMTEiIHI9IjEiIGZpbGw9IiMwMDFkNmMiLz48cGF0aCBkPSJNMjUsOGEzLDMsMCwxLDAtMy0zQTMsMywwLDAsMCwyNSw4Wm0wLTRhMSwxLDAsMSwxLTEsMUExLDEsMCwwLDEsMjUsNFoiIGZpbGw9IiMwMDFkNmMiLz48L3N2Zz4=;" vertex="1" parent="gs0iaYvnfJ1r0RqCEptI-4">
                    <mxGeometry x="34" y="32" width="60" height="60" as="geometry"/>
                </mxCell>
                <mxCell id="gs0iaYvnfJ1r0RqCEptI-6" value="" style="aspect=fixed;perimeter=ellipsePerimeter;html=1;align=center;shadow=0;dashed=0;fontColor=#4277BB;labelBackgroundColor=#ffffff;fontSize=12;spacingTop=3;image;image=img/lib/ibm/vpc/TransitGateway.svg;" vertex="1" parent="gs0iaYvnfJ1r0RqCEptI-1">
                    <mxGeometry x="420" y="160" width="60" height="60" as="geometry"/>
                </mxCell>
                <mxCell id="gs0iaYvnfJ1r0RqCEptI-7" value="User" style="aspect=fixed;perimeter=ellipsePerimeter;html=1;align=center;shadow=0;dashed=0;fontColor=#4277BB;labelBackgroundColor=#ffffff;fontSize=12;spacingTop=3;image;image=img/lib/ibm/users/browser.svg;" vertex="1" parent="gs0iaYvnfJ1r0RqCEptI-1">
                    <mxGeometry x="420" y="384" width="60" height="60" as="geometry"/>
                </mxCell>
                <mxCell id="gs0iaYvnfJ1r0RqCEptI-8" value="" style="aspect=fixed;perimeter=ellipsePerimeter;html=1;align=center;shadow=0;dashed=0;fontColor=#4277BB;labelBackgroundColor=#ffffff;fontSize=12;spacingTop=3;image;image=img/lib/ibm/vpc/Internet.svg;" vertex="1" parent="gs0iaYvnfJ1r0RqCEptI-1">
                    <mxGeometry x="420" y="254" width="60" height="60" as="geometry"/>
                </mxCell>
                <mxCell id="gs0iaYvnfJ1r0RqCEptI-9" value="" style="html=1;labelBackgroundColor=#ffffff;startArrow=classic;startFill=1;startSize=6;endArrow=classic;endFill=1;endSize=6;jettySize=auto;orthogonalLoop=1;strokeWidth=1;fontSize=14;exitX=0.5;exitY=0;exitDx=0;exitDy=0;" edge="1" parent="gs0iaYvnfJ1r0RqCEptI-1" source="gs0iaYvnfJ1r0RqCEptI-7">
                    <mxGeometry width="60" height="60" relative="1" as="geometry">
                        <mxPoint x="330" y="440" as="sourcePoint"/>
                        <mxPoint x="316" y="200" as="targetPoint"/>
                        <Array as="points">
                            <mxPoint x="450" y="290"/>
                        </Array>
                    </mxGeometry>
                </mxCell>
                <mxCell id="gs0iaYvnfJ1r0RqCEptI-10" value="" style="html=1;labelBackgroundColor=#ffffff;startArrow=classic;startFill=1;startSize=6;endArrow=classic;endFill=1;endSize=6;jettySize=auto;orthogonalLoop=1;strokeWidth=1;fontSize=14;exitX=1;exitY=0.5;exitDx=0;exitDy=0;" edge="1" parent="gs0iaYvnfJ1r0RqCEptI-1" target="gs0iaYvnfJ1r0RqCEptI-6">
                    <mxGeometry width="60" height="60" relative="1" as="geometry">
                        <mxPoint x="385" y="189" as="sourcePoint"/>
                        <mxPoint x="440" y="160" as="targetPoint"/>
                    </mxGeometry>
                </mxCell>
                <mxCell id="gs0iaYvnfJ1r0RqCEptI-11" value="" style="html=1;labelBackgroundColor=#ffffff;startArrow=classic;startFill=1;startSize=6;endArrow=classic;endFill=1;endSize=6;jettySize=auto;orthogonalLoop=1;strokeWidth=1;fontSize=14;exitX=1;exitY=0.5;exitDx=0;exitDy=0;" edge="1" parent="gs0iaYvnfJ1r0RqCEptI-1" source="gs0iaYvnfJ1r0RqCEptI-6">
                    <mxGeometry width="60" height="60" relative="1" as="geometry">
                        <mxPoint x="470" y="290" as="sourcePoint"/>
                        <mxPoint x="516" y="189.67567567567573" as="targetPoint"/>
                    </mxGeometry>
                </mxCell>
                <mxCell id="gs0iaYvnfJ1r0RqCEptI-12" value="" style="html=1;labelBackgroundColor=#ffffff;startArrow=classic;startFill=1;startSize=6;endArrow=classic;endFill=1;endSize=6;jettySize=auto;orthogonalLoop=1;strokeWidth=1;dashed=1;fontSize=14;exitX=0.5;exitY=0;exitDx=0;exitDy=0;entryX=0;entryY=0.5;entryDx=0;entryDy=0;" edge="1" parent="gs0iaYvnfJ1r0RqCEptI-1" source="gs0iaYvnfJ1r0RqCEptI-7">
                    <mxGeometry width="60" height="60" relative="1" as="geometry">
                        <mxPoint x="260" y="390" as="sourcePoint"/>
                        <mxPoint x="561" y="192" as="targetPoint"/>
                        <Array as="points">
                            <mxPoint x="457" y="280"/>
                            <mxPoint x="320" y="192"/>
                        </Array>
                    </mxGeometry>
                </mxCell>
                <mxCell id="gs0iaYvnfJ1r0RqCEptI-13" value="Transit Gateway" style="text;html=1;strokeColor=none;fillColor=none;align=center;verticalAlign=middle;whiteSpace=wrap;rounded=0;fontSize=10;" vertex="1" parent="gs0iaYvnfJ1r0RqCEptI-1">
                    <mxGeometry x="430" y="131" width="40" height="20" as="geometry"/>
                </mxCell>
                <mxCell id="gs0iaYvnfJ1r0RqCEptI-14" value="VPN server" style="text;html=1;strokeColor=none;fillColor=none;align=center;verticalAlign=middle;whiteSpace=wrap;rounded=0;" vertex="1" parent="gs0iaYvnfJ1r0RqCEptI-1">
                    <mxGeometry x="260" y="228" width="67" height="20" as="geometry"/>
                </mxCell>
            </root>
        </mxGraphModel>
    </diagram>
    <diagram id="Syosu1OQXlCpev38Kj0z" name="site-to-site VPN gateway integration">
        <mxGraphModel dx="745" dy="481" grid="0" gridSize="10" guides="1" tooltips="1" connect="1" arrows="1" fold="1" page="0" pageScale="1" pageWidth="850" pageHeight="1100" math="0" shadow="0">
            <root>
                <mxCell id="zlyfrQNPaTAYGA70NlG3-0"/>
                <mxCell id="zlyfrQNPaTAYGA70NlG3-1" parent="zlyfrQNPaTAYGA70NlG3-0"/>
                <mxCell id="zlyfrQNPaTAYGA70NlG3-2" value="Enterprise Network" style="shape=mxgraph.ibm.box;prType=enterprise;fontStyle=0;verticalAlign=top;align=left;spacingLeft=32;spacingTop=4;fillColor=none;rounded=0;whiteSpace=wrap;html=1;strokeColor=#4376BB;strokeWidth=3;dashed=0;container=1;spacing=-4;collapsible=0;expand=0;recursiveResize=0;" vertex="1" parent="zlyfrQNPaTAYGA70NlG3-1">
                    <mxGeometry x="548" y="69" width="169" height="183" as="geometry"/>
                </mxCell>
                <mxCell id="zlyfrQNPaTAYGA70NlG3-3" value="Region A VPC A" style="shape=mxgraph.ibm.box;prType=vpc;fontStyle=0;verticalAlign=top;align=left;spacingLeft=32;spacingTop=4;fillColor=none;rounded=0;whiteSpace=wrap;html=1;strokeColor=#4376BB;strokeWidth=2;dashed=0;container=1;spacing=-4;collapsible=0;expand=0;recursiveResize=0;" vertex="1" parent="zlyfrQNPaTAYGA70NlG3-1">
                    <mxGeometry x="221" y="70" width="170" height="178" as="geometry"/>
                </mxCell>
                <mxCell id="zlyfrQNPaTAYGA70NlG3-4" value="" style="shape=image;aspect=fixed;image=data:image/svg+xml,PD94bWwgdmVyc2lvbj0iMS4wIiBlbmNvZGluZz0idXRmLTgiPz48c3ZnIHZlcnNpb249IjEuMSIgaWQ9IlBhZGRpbmciIHhtbG5zPSJodHRwOi8vd3d3LnczLm9yZy8yMDAwL3N2ZyIgeG1sbnM6eGxpbms9Imh0dHA6Ly93d3cudzMub3JnLzE5OTkveGxpbmsiIHg9IjBweCIgeT0iMHB4IiB2aWV3Qm94PSIwIDAgMzIgMzIiIHN0eWxlPSJlbmFibGUtYmFja2dyb3VuZDpuZXcgMCAwIDMyIDMyOyIgeG1sOnNwYWNlPSJwcmVzZXJ2ZSI+PGRlZnM+PGxpbmVhckdyYWRpZW50IGlkPSJhIiB4MT0iMTEuNTQiIHkxPSIyOS42MyIgeDI9IjExLjU0IiB5Mj0iMi4zNyIgZ3JhZGllbnRVbml0cz0idXNlclNwYWNlT25Vc2UiPjxzdG9wIG9mZnNldD0iMCIgc3RvcC1jb2xvcj0iI2ZmZiIgc3RvcC1vcGFjaXR5PSIwIi8+PHN0b3Agb2Zmc2V0PSIwLjQ2IiBzdG9wLWNvbG9yPSIjZmZmIi8+PC9saW5lYXJHcmFkaWVudD48bWFzayBpZD0iYiIgeD0iMCIgeT0iMCIgd2lkdGg9IjMyIiBoZWlnaHQ9IjMyIiBtYXNrVW5pdHM9InVzZXJTcGFjZU9uVXNlIj48cGF0aCBkPSJNMTMuNywyOS42M0ExOC43NywxOC43NywwLDAsMSw4LDE2LDE4Ljc3LDE4Ljc3LDAsMCwxLDEzLjcsMi4zN2wxLjM3LDEuNDZBMTYuNzQsMTYuNzQsMCwwLDAsMTAsMTZhMTYuNzQsMTYuNzQsMCwwLDAsNS4wNywxMi4xN1oiIGZpbGw9InVybCgjYSkiLz48cGF0aCBkPSJNMTYsMmExNCwxNCwwLDAsMCwwLDI4aDFWMlpNMTUsNFYxNUg0LjA1QTEyLDEyLDAsMCwxLDE1LDRaTTQuMDUsMTdIMTVWMjhBMTIsMTIsMCwwLDEsNC4wNSwxN1oiIGZpbGw9IiNmZmYiLz48L21hc2s+PGxpbmVhckdyYWRpZW50IGlkPSJjIiB5MT0iMzIiIHgyPSIzMiIgZ3JhZGllbnRVbml0cz0idXNlclNwYWNlT25Vc2UiPjxzdG9wIG9mZnNldD0iMC4xIiBzdG9wLWNvbG9yPSIjZWU1Mzk2Ii8+PHN0b3Agb2Zmc2V0PSIwLjkiIHN0b3AtY29sb3I9IiM4YTNmZmMiLz48L2xpbmVhckdyYWRpZW50PjwvZGVmcz48ZyBtYXNrPSJ1cmwoI2IpIj48cmVjdCB3aWR0aD0iMzIiIGhlaWdodD0iMzIiIGZpbGw9InVybCgjYykiLz48L2c+PHBhdGggZD0iTTI5LDIzSDI4VjIxYTMsMywwLDAsMC02LDB2MkgyMWExLDEsMCwwLDAtMSwxdjVhMSwxLDAsMCwwLDEsMWg4YTEsMSwwLDAsMCwxLTFWMjRBMSwxLDAsMCwwLDI5LDIzWm0tNS0yYTEsMSwwLDAsMSwyLDB2MkgyNFptNCw3SDIyVjI1aDZaIiBmaWxsPSIjMDAxZDZjIi8+PGNpcmNsZSBjeD0iMjUiIGN5PSIxNSIgcj0iMSIgZmlsbD0iIzAwMWQ2YyIvPjxjaXJjbGUgY3g9IjI1IiBjeT0iMTEiIHI9IjEiIGZpbGw9IiMwMDFkNmMiLz48cGF0aCBkPSJNMjUsOGEzLDMsMCwxLDAtMy0zQTMsMywwLDAsMCwyNSw4Wm0wLTRhMSwxLDAsMSwxLTEsMUExLDEsMCwwLDEsMjUsNFoiIGZpbGw9IiMwMDFkNmMiLz48L3N2Zz4=;" vertex="1" parent="zlyfrQNPaTAYGA70NlG3-3">
                    <mxGeometry x="35" y="102" width="60" height="60" as="geometry"/>
                </mxCell>
                <mxCell id="zlyfrQNPaTAYGA70NlG3-5" value="VPN server" style="text;html=1;strokeColor=none;fillColor=none;align=center;verticalAlign=middle;whiteSpace=wrap;rounded=0;" vertex="1" parent="zlyfrQNPaTAYGA70NlG3-3">
                    <mxGeometry x="23" y="158" width="79" height="20" as="geometry"/>
                </mxCell>
                <mxCell id="zlyfrQNPaTAYGA70NlG3-6" value="User" style="aspect=fixed;perimeter=ellipsePerimeter;html=1;align=center;shadow=0;dashed=0;fontColor=#4277BB;labelBackgroundColor=#ffffff;fontSize=12;spacingTop=3;image;image=img/lib/ibm/users/browser.svg;" vertex="1" parent="zlyfrQNPaTAYGA70NlG3-1">
                    <mxGeometry x="439" y="319" width="60" height="60" as="geometry"/>
                </mxCell>
                <mxCell id="zlyfrQNPaTAYGA70NlG3-7" value="" style="aspect=fixed;perimeter=ellipsePerimeter;html=1;align=center;shadow=0;dashed=0;fontColor=#4277BB;labelBackgroundColor=#ffffff;fontSize=12;spacingTop=3;image;image=img/lib/ibm/vpc/Internet.svg;" vertex="1" parent="zlyfrQNPaTAYGA70NlG3-1">
                    <mxGeometry x="443" y="220" width="60" height="60" as="geometry"/>
                </mxCell>
                <mxCell id="zlyfrQNPaTAYGA70NlG3-8" value="" style="html=1;labelBackgroundColor=#ffffff;startArrow=classic;startFill=1;startSize=6;endArrow=classic;endFill=1;endSize=6;jettySize=auto;orthogonalLoop=1;strokeWidth=1;fontSize=14;exitX=0.5;exitY=0;exitDx=0;exitDy=0;entryX=1;entryY=0.75;entryDx=0;entryDy=0;" edge="1" parent="zlyfrQNPaTAYGA70NlG3-1" source="zlyfrQNPaTAYGA70NlG3-6">
                    <mxGeometry width="60" height="60" relative="1" as="geometry">
                        <mxPoint x="330" y="440" as="sourcePoint"/>
                        <mxPoint x="307.5380764367069" y="205.81827668961932" as="targetPoint"/>
                        <Array as="points">
                            <mxPoint x="460" y="250"/>
                        </Array>
                    </mxGeometry>
                </mxCell>
                <mxCell id="zlyfrQNPaTAYGA70NlG3-9" value="&lt;font color=&quot;#000000&quot;&gt;VPN gateway&lt;/font&gt;" style="aspect=fixed;perimeter=ellipsePerimeter;html=1;align=center;shadow=0;dashed=0;fontColor=#4277BB;labelBackgroundColor=#ffffff;fontSize=12;spacingTop=3;image;image=img/lib/ibm/vpc/VPNConnection.svg;" vertex="1" parent="zlyfrQNPaTAYGA70NlG3-1">
                    <mxGeometry x="255" y="90" width="50" height="50" as="geometry"/>
                </mxCell>
                <mxCell id="zlyfrQNPaTAYGA70NlG3-10" value="&lt;font style=&quot;font-size: 9px&quot;&gt;VPN gateway&lt;/font&gt;" style="ellipse;whiteSpace=wrap;html=1;aspect=fixed;strokeColor=#0000FF;" vertex="1" parent="zlyfrQNPaTAYGA70NlG3-1">
                    <mxGeometry x="612" y="90" width="46" height="46" as="geometry"/>
                </mxCell>
                <mxCell id="zlyfrQNPaTAYGA70NlG3-11" value="" style="endArrow=classic;startArrow=classic;html=1;exitX=1;exitY=0.5;exitDx=0;exitDy=0;entryX=0;entryY=0.5;entryDx=0;entryDy=0;" edge="1" parent="zlyfrQNPaTAYGA70NlG3-1" source="zlyfrQNPaTAYGA70NlG3-12" target="zlyfrQNPaTAYGA70NlG3-10">
                    <mxGeometry width="50" height="50" relative="1" as="geometry">
                        <mxPoint x="440" y="170" as="sourcePoint"/>
                        <mxPoint x="430" y="115" as="targetPoint"/>
                    </mxGeometry>
                </mxCell>
                <mxCell id="zlyfrQNPaTAYGA70NlG3-12" value="" style="aspect=fixed;perimeter=ellipsePerimeter;html=1;align=center;shadow=0;dashed=0;fontColor=#4277BB;labelBackgroundColor=#ffffff;fontSize=12;spacingTop=3;image;image=img/lib/ibm/vpc/Internet.svg;strokeColor=#0000FF;" vertex="1" parent="zlyfrQNPaTAYGA70NlG3-1">
                    <mxGeometry x="450" y="83" width="60" height="60" as="geometry"/>
                </mxCell>
                <mxCell id="zlyfrQNPaTAYGA70NlG3-13" value="" style="endArrow=classic;startArrow=classic;html=1;exitX=1;exitY=0.5;exitDx=0;exitDy=0;entryX=0;entryY=0.5;entryDx=0;entryDy=0;" edge="1" parent="zlyfrQNPaTAYGA70NlG3-1" source="zlyfrQNPaTAYGA70NlG3-9" target="zlyfrQNPaTAYGA70NlG3-12">
                    <mxGeometry width="50" height="50" relative="1" as="geometry">
                        <mxPoint x="330" y="115" as="sourcePoint"/>
                        <mxPoint x="612" y="113" as="targetPoint"/>
                    </mxGeometry>
                </mxCell>
                <mxCell id="zlyfrQNPaTAYGA70NlG3-14" value="&lt;font style=&quot;font-size: 8px&quot;&gt;Implicit Router&lt;/font&gt;" style="aspect=fixed;perimeter=ellipsePerimeter;html=1;align=center;shadow=0;dashed=0;fontColor=#4277BB;labelBackgroundColor=#ffffff;fontSize=12;spacingTop=3;image;image=img/lib/ibm/vpc/Router.svg;strokeColor=#0000FF;" vertex="1" parent="zlyfrQNPaTAYGA70NlG3-1">
                    <mxGeometry x="327" y="134" width="50" height="50" as="geometry"/>
                </mxCell>
                <mxCell id="zlyfrQNPaTAYGA70NlG3-15" value="&lt;font style=&quot;font-size: 9px&quot;&gt;Virtual machine&lt;/font&gt;" style="rounded=1;whiteSpace=wrap;html=1;strokeColor=#0000FF;" vertex="1" parent="zlyfrQNPaTAYGA70NlG3-1">
                    <mxGeometry x="600" y="165" width="80" height="35" as="geometry"/>
                </mxCell>
                <mxCell id="zlyfrQNPaTAYGA70NlG3-16" value="" style="html=1;labelBackgroundColor=#ffffff;startArrow=classic;startFill=1;startSize=6;endArrow=classic;endFill=1;endSize=6;jettySize=auto;orthogonalLoop=1;strokeWidth=1;dashed=1;fontSize=14;entryX=0.5;entryY=0;entryDx=0;entryDy=0;exitX=0.5;exitY=0;exitDx=0;exitDy=0;" edge="1" parent="zlyfrQNPaTAYGA70NlG3-1" source="zlyfrQNPaTAYGA70NlG3-6" target="zlyfrQNPaTAYGA70NlG3-15">
                    <mxGeometry width="60" height="60" relative="1" as="geometry">
                        <mxPoint x="460" y="380" as="sourcePoint"/>
                        <mxPoint x="560" y="310" as="targetPoint"/>
                        <Array as="points">
                            <mxPoint x="470" y="250"/>
                            <mxPoint x="300" y="200"/>
                            <mxPoint x="330" y="165"/>
                            <mxPoint x="300" y="110"/>
                            <mxPoint x="620" y="110"/>
                        </Array>
                    </mxGeometry>
                </mxCell>
                <mxCell id="zlyfrQNPaTAYGA70NlG3-17" value="VPN tunnel" style="edgeLabel;html=1;align=center;verticalAlign=middle;resizable=0;points=[];fontSize=10;" vertex="1" connectable="0" parent="zlyfrQNPaTAYGA70NlG3-16">
                    <mxGeometry x="0.3321" y="2" relative="1" as="geometry">
                        <mxPoint x="-10.34" y="-9" as="offset"/>
                    </mxGeometry>
                </mxCell>
                <mxCell id="zlyfrQNPaTAYGA70NlG3-18" value="&lt;font style=&quot;font-size: 10px&quot;&gt;On-prem Data center&lt;/font&gt;" style="text;html=1;strokeColor=none;fillColor=none;align=center;verticalAlign=middle;whiteSpace=wrap;rounded=0;" vertex="1" parent="zlyfrQNPaTAYGA70NlG3-1">
                    <mxGeometry x="607" y="217" width="59" height="20" as="geometry"/>
                </mxCell>
            </root>
        </mxGraphModel>
    </diagram>
</mxfile>